<svg width="1303" height="792" viewBox="0 0 1303 792" fill="none" xmlns="http://www.w3.org/2000/svg">
<rect width="1303" height="791" fill="#D9FBFD"/>
<path d="M164.006 288.15C187.744 288.15 206.987 271.202 206.987 250.295C206.987 229.388 187.744 212.44 164.006 212.44C140.268 212.44 121.025 229.388 121.025 250.295C121.025 271.202 140.268 288.15 164.006 288.15Z" fill="#FFEF9A"/>
<path fill-rule="evenodd" clip-rule="evenodd" d="M216.036 262.146C216.036 226.429 193.248 197.474 165.137 197.474C137.027 197.474 114.239 226.429 114.239 262.146" fill="#1E1D1D"/>
<path d="M167.708 0H162.567V206.95H167.708V0Z" fill="#1E1D1D"/>
<path fill-rule="evenodd" clip-rule="evenodd" d="M0 478L54.2917 503.99C108.583 529.98 217.167 581.96 325.75 595.52C434.333 609.08 542.917 581.96 651.5 562.75C760.083 543.54 868.667 529.98 977.25 550.32C1085.83 569.53 1194.42 621.51 1248.71 647.5L1303 673.49V791.01H1248.71C1194.42 791.01 1085.83 791.01 977.25 791.01C868.667 791.01 760.083 791.01 651.5 791.01C542.917 791.01 434.333 791.01 325.75 791.01C217.167 791.01 108.583 791.01 54.2917 791.01H0V478Z" fill="#1E1D1D"/>
</svg>
