<svg width="80" height="80" viewBox="0 0 164 121" fill="none" xmlns="http://www.w3.org/2000/svg">
<g id="Symbols">
<g id="Objects/Seat/Cube 2">
<path id="Seat" fill-rule="evenodd" clip-rule="evenodd" d="M17.8503 0H146.15C156.008 0 164 6.99013 164 15.6129V105.387C164 114.01 156.008 121 146.15 121H17.8503C7.99187 121 0 114.01 0 105.387V15.6129C0 6.99013 7.99187 0 17.8503 0ZM35.7007 27.3226C33.2361 27.3226 31.2381 29.0701 31.2381 31.2258V89.7742C31.2381 91.9299 33.2361 93.6774 35.7007 93.6774H128.299C130.764 93.6774 132.762 91.9299 132.762 89.7742V31.2258C132.762 29.0701 130.764 27.3226 128.299 27.3226H35.7007Z" fill="#1E1D1D"/>
</g>
</g>
<path id="textlogo" d="M12.1035 106.477V111.557L16.5332 113.754H3.45508L7.81445 111.152L9.04492 93.082L3.78906 89.8828C4.39844 89.7891 5.01953 89.7129 5.65234 89.6543C6.29688 89.5957 6.92969 89.5547 7.55078 89.5312C8.18359 89.4961 8.79297 89.4727 9.37891 89.4609C9.97656 89.4492 10.5332 89.4434 11.0488 89.4434C12.2207 89.4434 13.3867 89.4844 14.5469 89.5664C15.707 89.6484 16.8145 89.8066 17.8691 90.041C18.9355 90.2637 19.9199 90.5742 20.8223 90.9727C21.7363 91.3711 22.5273 91.8867 23.1953 92.5195C23.8633 93.1406 24.3848 93.8965 24.7598 94.7871C25.1465 95.6777 25.3398 96.7207 25.3398 97.916C25.3398 99.0059 25.1641 99.9727 24.8125 100.816C24.4727 101.66 24.0039 102.404 23.4062 103.049C22.8203 103.682 22.1289 104.215 21.332 104.648C20.5352 105.082 19.6914 105.439 18.8008 105.721C17.9102 105.99 16.9961 106.184 16.0586 106.301C15.1211 106.418 14.207 106.477 13.3164 106.477H12.1035ZM12.1035 91.7812V104.719C13.4746 104.719 14.6348 104.584 15.584 104.314C16.5332 104.045 17.3242 103.705 17.957 103.295C18.5898 102.873 19.082 102.41 19.4336 101.906C19.7969 101.391 20.0664 100.898 20.2422 100.43C20.418 99.9492 20.5234 99.5215 20.5586 99.1465C20.6055 98.7598 20.6289 98.4785 20.6289 98.3027C20.6289 98.0684 20.6055 97.7461 20.5586 97.3359C20.5234 96.9141 20.4238 96.4629 20.2598 95.9824C20.0957 95.502 19.8496 95.0156 19.5215 94.5234C19.1934 94.0195 18.7363 93.5684 18.1504 93.1699C17.5645 92.7598 16.832 92.4258 15.9531 92.168C15.0859 91.9102 14.0312 91.7812 12.7891 91.7812H12.1035ZM33.3906 97.6992L31.1172 98.9531L30.8008 104.766L36.8477 104.953L37 100.078L34.832 98.7891L41.7695 98.3555L39.1328 100.512L39.5664 112.301L41.9922 113.906L33.6602 113.953L36.6133 111.984L36.8008 106.465L30.707 106.348L30.4492 111.164L32.1719 112.898H26.4648L28.4805 111.27L27.7773 99.1172L25.2344 97.582L33.3906 97.6992ZM58.0703 105.715C58.0703 107.02 57.8672 108.188 57.4609 109.219C57.0625 110.242 56.5156 111.109 55.8203 111.82C55.125 112.523 54.3125 113.062 53.3828 113.438C52.4609 113.812 51.4766 114 50.4297 114C49.7422 114 49.0664 113.918 48.4023 113.754C47.7461 113.59 47.1211 113.352 46.5273 113.039C45.9414 112.727 45.3984 112.348 44.8984 111.902C44.3984 111.449 43.9688 110.934 43.6094 110.355C43.25 109.77 42.9688 109.129 42.7656 108.434C42.5625 107.73 42.4609 106.977 42.4609 106.172C42.4609 104.922 42.6641 103.77 43.0703 102.715C43.4844 101.652 44.0547 100.734 44.7812 99.9609C45.5156 99.1875 46.3789 98.582 47.3711 98.1445C48.3711 97.707 49.457 97.4883 50.6289 97.4883C51.6133 97.4883 52.5547 97.6719 53.4531 98.0391C54.3516 98.3984 55.1406 98.9297 55.8203 99.6328C56.5078 100.336 57.0547 101.199 57.4609 102.223C57.8672 103.238 58.0703 104.402 58.0703 105.715ZM54.918 105.938C54.918 104.969 54.7539 104.121 54.4258 103.395C54.0977 102.66 53.6719 102.047 53.1484 101.555C52.625 101.062 52.0312 100.695 51.3672 100.453C50.7031 100.203 50.0391 100.078 49.375 100.078C48.6094 100.078 47.8984 100.219 47.2422 100.5C46.5859 100.781 46.0156 101.188 45.5312 101.719C45.0469 102.242 44.6641 102.883 44.3828 103.641C44.1094 104.391 43.9727 105.234 43.9727 106.172C43.9727 107.062 44.1094 107.855 44.3828 108.551C44.6562 109.246 45.0312 109.836 45.5078 110.32C45.9844 110.797 46.5391 111.164 47.1719 111.422C47.8125 111.672 48.4922 111.797 49.2109 111.797C49.9375 111.797 50.6406 111.672 51.3203 111.422C52.0078 111.164 52.6172 110.789 53.1484 110.297C53.6875 109.797 54.1172 109.184 54.4375 108.457C54.7578 107.723 54.918 106.883 54.918 105.938ZM72.6602 98.0625L71.7461 104.93L70.3984 99.9141L66.8008 100.324L67.2812 112.031L70.1875 113.52L60.8242 114.41L64.2344 111.938L64.832 100.441L61.1172 100.301L59.6758 104.566L59.2188 98.2617L72.6602 98.0625ZM89.1719 105.715C89.1719 107.02 88.9688 108.188 88.5625 109.219C88.1641 110.242 87.6172 111.109 86.9219 111.82C86.2266 112.523 85.4141 113.062 84.4844 113.438C83.5625 113.812 82.5781 114 81.5312 114C80.8438 114 80.168 113.918 79.5039 113.754C78.8477 113.59 78.2227 113.352 77.6289 113.039C77.043 112.727 76.5 112.348 76 111.902C75.5 111.449 75.0703 110.934 74.7109 110.355C74.3516 109.77 74.0703 109.129 73.8672 108.434C73.6641 107.73 73.5625 106.977 73.5625 106.172C73.5625 104.922 73.7656 103.77 74.1719 102.715C74.5859 101.652 75.1562 100.734 75.8828 99.9609C76.6172 99.1875 77.4805 98.582 78.4727 98.1445C79.4727 97.707 80.5586 97.4883 81.7305 97.4883C82.7148 97.4883 83.6562 97.6719 84.5547 98.0391C85.4531 98.3984 86.2422 98.9297 86.9219 99.6328C87.6094 100.336 88.1562 101.199 88.5625 102.223C88.9688 103.238 89.1719 104.402 89.1719 105.715ZM86.0195 105.938C86.0195 104.969 85.8555 104.121 85.5273 103.395C85.1992 102.66 84.7734 102.047 84.25 101.555C83.7266 101.062 83.1328 100.695 82.4688 100.453C81.8047 100.203 81.1406 100.078 80.4766 100.078C79.7109 100.078 79 100.219 78.3438 100.5C77.6875 100.781 77.1172 101.188 76.6328 101.719C76.1484 102.242 75.7656 102.883 75.4844 103.641C75.2109 104.391 75.0742 105.234 75.0742 106.172C75.0742 107.062 75.2109 107.855 75.4844 108.551C75.7578 109.246 76.1328 109.836 76.6094 110.32C77.0859 110.797 77.6406 111.164 78.2734 111.422C78.9141 111.672 79.5938 111.797 80.3125 111.797C81.0391 111.797 81.7422 111.672 82.4219 111.422C83.1094 111.164 83.7188 110.789 84.25 110.297C84.7891 109.797 85.2188 109.184 85.5391 108.457C85.8594 107.723 86.0195 106.883 86.0195 105.938ZM97.7617 97.6055C98.5586 97.6055 99.3203 97.7461 100.047 98.0273C100.773 98.3008 101.379 98.7031 101.863 99.2344L104.723 96.9609L101.453 103.969L101.172 100.559C100.914 100.246 100.641 100 100.352 99.8203C100.062 99.6406 99.7812 99.5078 99.5078 99.4219C99.2422 99.3281 99 99.2695 98.7812 99.2461C98.5703 99.2227 98.4062 99.2109 98.2891 99.2109C97.6562 99.2109 97.0664 99.3711 96.5195 99.6914C95.9805 100.012 95.5117 100.473 95.1133 101.074C94.7148 101.668 94.3984 102.387 94.1641 103.23C93.9375 104.074 93.8242 105.016 93.8242 106.055C93.8242 107.094 93.9375 108.043 94.1641 108.902C94.3984 109.762 94.7109 110.5 95.1016 111.117C95.5 111.734 95.9648 112.215 96.4961 112.559C97.0273 112.895 97.5938 113.062 98.1953 113.062C98.8047 113.062 99.3281 112.914 99.7656 112.617C100.203 112.312 100.562 111.93 100.844 111.469C101.125 111.008 101.328 110.504 101.453 109.957C101.586 109.41 101.652 108.887 101.652 108.387C101.652 108.277 101.652 108.176 101.652 108.082C101.652 107.98 101.645 107.875 101.629 107.766C102.137 108.102 102.508 108.484 102.742 108.914C102.984 109.336 103.105 109.773 103.105 110.227C103.105 110.648 103 111.098 102.789 111.574C102.586 112.043 102.281 112.48 101.875 112.887C101.469 113.285 100.969 113.617 100.375 113.883C99.7812 114.141 99.0938 114.27 98.3125 114.27C97.6797 114.27 97.0508 114.203 96.4258 114.07C95.8008 113.938 95.2031 113.734 94.6328 113.461C94.0625 113.18 93.5312 112.824 93.0391 112.395C92.5469 111.965 92.1211 111.453 91.7617 110.859C91.4023 110.266 91.1172 109.582 90.9062 108.809C90.7031 108.035 90.6016 107.172 90.6016 106.219C90.6016 105.289 90.6953 104.434 90.8828 103.652C91.0781 102.863 91.3438 102.152 91.6797 101.52C92.0234 100.879 92.4219 100.316 92.875 99.832C93.3359 99.3398 93.8281 98.9297 94.3516 98.6016C94.8828 98.2734 95.4375 98.0273 96.0156 97.8633C96.6016 97.6914 97.1836 97.6055 97.7617 97.6055ZM117.098 113.473L103.633 114L106.609 111.41L107.312 100.078L104.09 98.4023L111.895 97.8984L109.422 99.5742L109.562 111.457L114.988 112.125L117.098 108.164V113.473ZM133.914 105.715C133.914 107.02 133.711 108.188 133.305 109.219C132.906 110.242 132.359 111.109 131.664 111.82C130.969 112.523 130.156 113.062 129.227 113.438C128.305 113.812 127.32 114 126.273 114C125.586 114 124.91 113.918 124.246 113.754C123.59 113.59 122.965 113.352 122.371 113.039C121.785 112.727 121.242 112.348 120.742 111.902C120.242 111.449 119.812 110.934 119.453 110.355C119.094 109.77 118.812 109.129 118.609 108.434C118.406 107.73 118.305 106.977 118.305 106.172C118.305 104.922 118.508 103.77 118.914 102.715C119.328 101.652 119.898 100.734 120.625 99.9609C121.359 99.1875 122.223 98.582 123.215 98.1445C124.215 97.707 125.301 97.4883 126.473 97.4883C127.457 97.4883 128.398 97.6719 129.297 98.0391C130.195 98.3984 130.984 98.9297 131.664 99.6328C132.352 100.336 132.898 101.199 133.305 102.223C133.711 103.238 133.914 104.402 133.914 105.715ZM130.762 105.938C130.762 104.969 130.598 104.121 130.27 103.395C129.941 102.66 129.516 102.047 128.992 101.555C128.469 101.062 127.875 100.695 127.211 100.453C126.547 100.203 125.883 100.078 125.219 100.078C124.453 100.078 123.742 100.219 123.086 100.5C122.43 100.781 121.859 101.188 121.375 101.719C120.891 102.242 120.508 102.883 120.227 103.641C119.953 104.391 119.816 105.234 119.816 106.172C119.816 107.062 119.953 107.855 120.227 108.551C120.5 109.246 120.875 109.836 121.352 110.32C121.828 110.797 122.383 111.164 123.016 111.422C123.656 111.672 124.336 111.797 125.055 111.797C125.781 111.797 126.484 111.672 127.164 111.422C127.852 111.164 128.461 110.789 128.992 110.297C129.531 109.797 129.961 109.184 130.281 108.457C130.602 107.723 130.762 106.883 130.762 105.938ZM149.582 98.0391L147.203 99.9609C147.219 100.289 147.23 100.621 147.238 100.957C147.254 101.293 147.262 101.594 147.262 101.859C147.262 102.914 147.254 103.949 147.238 104.965C147.23 105.973 147.18 106.934 147.086 107.848C146.992 108.754 146.844 109.594 146.641 110.367C146.445 111.133 146.16 111.797 145.785 112.359C145.41 112.914 144.934 113.352 144.355 113.672C143.777 113.984 143.062 114.141 142.211 114.141C141.352 114.141 140.617 113.934 140.008 113.52C139.398 113.105 138.883 112.547 138.461 111.844C138.047 111.141 137.711 110.324 137.453 109.395C137.203 108.457 137.004 107.465 136.855 106.418C136.707 105.371 136.598 104.301 136.527 103.207C136.465 102.113 136.41 101.055 136.363 100.031L134.008 98.6367L142.211 97.7812L139.645 99.6914C139.629 99.9336 139.621 100.176 139.621 100.418C139.621 100.652 139.621 100.891 139.621 101.133C139.621 101.68 139.621 102.266 139.621 102.891C139.621 103.516 139.633 104.156 139.656 104.812C139.68 105.461 139.715 106.113 139.762 106.77C139.809 107.418 139.875 108.043 139.961 108.645C140.055 109.246 140.172 109.805 140.312 110.32C140.453 110.836 140.629 111.285 140.84 111.668C141.051 112.051 141.297 112.352 141.578 112.57C141.867 112.789 142.199 112.898 142.574 112.898C143.074 112.898 143.531 112.766 143.945 112.5C144.359 112.234 144.715 111.82 145.012 111.258C145.309 110.688 145.539 109.957 145.703 109.066C145.875 108.176 145.961 107.102 145.961 105.844C145.961 104.312 145.906 103.07 145.797 102.117C145.695 101.164 145.598 100.453 145.504 99.9844L143.125 98.8594L149.582 98.0391ZM152.559 114.094C151.332 114.094 150.086 114 148.82 113.812L152.008 112.348L153.086 100.242L149.465 98.6133C150.223 98.4414 150.992 98.3086 151.773 98.2148C152.555 98.1133 153.273 98.0391 153.93 97.9922C154.688 97.9375 155.426 97.9062 156.145 97.8984C156.676 97.8984 157.223 97.9609 157.785 98.0859C158.355 98.2109 158.91 98.4102 159.449 98.6836C159.988 98.9492 160.496 99.293 160.973 99.7148C161.449 100.137 161.863 100.641 162.215 101.227C162.574 101.812 162.859 102.488 163.07 103.254C163.281 104.012 163.387 104.867 163.387 105.82C163.387 106.875 163.234 107.812 162.93 108.633C162.625 109.453 162.207 110.168 161.676 110.777C161.152 111.387 160.539 111.906 159.836 112.336C159.133 112.758 158.379 113.098 157.574 113.355C156.77 113.613 155.938 113.801 155.078 113.918C154.227 114.035 153.387 114.094 152.559 114.094ZM160.656 105.363C160.656 104.965 160.625 104.539 160.562 104.086C160.508 103.633 160.41 103.184 160.27 102.738C160.129 102.293 159.941 101.867 159.707 101.461C159.473 101.047 159.18 100.684 158.828 100.371C158.484 100.059 158.074 99.8086 157.598 99.6211C157.121 99.4336 156.57 99.3398 155.945 99.3398C155.617 99.3398 155.273 99.3633 154.914 99.4102V112.535C155.977 112.387 156.871 112.109 157.598 111.703C158.332 111.297 158.926 110.785 159.379 110.168C159.832 109.543 160.156 108.828 160.352 108.023C160.555 107.211 160.656 106.324 160.656 105.363Z" fill="#F4EEB0"/>
</svg>
