<svg width="435" height="380" viewBox="0 0 424 443" fill="none" xmlns="http://www.w3.org/2000/svg">
<path id="Vector" d="M278.861 88.9229V132.587C278.86 132.99 278.699 133.377 278.412 133.662C278.126 133.947 277.738 134.108 277.333 134.109H276.245V361.568C276.245 367.863 273.735 373.899 269.267 378.35C264.798 382.801 258.739 385.301 252.42 385.302H109.741C103.423 385.301 97.3644 382.8 92.8975 378.35C88.4306 373.9 85.9215 367.864 85.9221 361.571V142.087H85.1345C84.8488 142.087 84.5746 141.975 84.3719 141.774C84.1692 141.573 84.0547 141.301 84.0534 141.016V116.166C84.0533 116.025 84.0813 115.885 84.1356 115.754C84.1898 115.623 84.2694 115.505 84.3698 115.405C84.4702 115.305 84.5893 115.225 84.7205 115.171C84.8516 115.117 84.9921 115.089 85.1341 115.089H85.9221V105.729H85.1278C84.8279 105.728 84.5407 105.608 84.3292 105.396C84.1178 105.184 83.9994 104.898 84 104.599V80.0878C84.0008 79.7901 84.1198 79.5048 84.3312 79.2942C84.5425 79.0837 84.8289 78.9651 85.1278 78.9643H85.9221V66.1869H85.1145C84.9832 66.1871 84.8531 66.1615 84.7318 66.1117C84.6104 66.0618 84.5001 65.9886 84.4072 65.8962C84.3142 65.8039 84.2404 65.6942 84.19 65.5734C84.1396 65.4527 84.1136 65.3232 84.1134 65.1924V51.8141C84.1128 51.5488 84.2179 51.2941 84.4055 51.106C84.5932 50.9178 84.8482 50.8114 85.1145 50.8103H85.9221V23.7265C85.9223 17.4339 88.4319 11.3991 92.8987 6.94959C97.3655 2.50005 103.424 0.000228085 109.741 2.14336e-10H252.42C258.737 -2.67269e-05 264.797 2.4995 269.265 6.9489C273.733 11.3983 276.243 17.4332 276.245 23.7265V87.4005H277.333C277.738 87.4016 278.126 87.5623 278.412 87.8476C278.699 88.1328 278.86 88.5195 278.861 88.9229V88.9229Z" fill="#646466"/>
<path id="Vector_2" d="M264.836 28.4091V363.539C264.834 367.531 263.24 371.359 260.406 374.181C257.571 377.003 253.728 378.589 249.72 378.59H113.141C111.159 378.593 109.196 378.207 107.364 377.454C105.531 376.701 103.866 375.597 102.462 374.203C101.058 372.809 99.9441 371.153 99.1827 369.33C98.4214 367.507 98.028 365.553 98.025 363.579V28.4224C98.0249 26.445 98.4158 24.4869 99.1754 22.66C99.9351 20.8331 101.049 19.1731 102.452 17.7749C103.856 16.3766 105.522 15.2675 107.356 14.5108C109.19 13.7541 111.156 13.3647 113.141 13.3648H133.583V15.9774C133.583 19.2657 134.894 22.4193 137.228 24.7444C139.563 27.0696 142.728 28.3758 146.03 28.3759H215.49C218.791 28.3758 221.957 27.0696 224.291 24.7444C226.626 22.4193 227.937 19.2657 227.937 15.9774V13.3648H249.72C251.705 13.3632 253.67 13.7512 255.504 14.5065C257.337 15.2618 259.004 16.3697 260.408 17.7668C261.812 19.164 262.925 20.823 263.685 22.649C264.445 24.4751 264.836 26.4324 264.836 28.4091Z" fill="white"/>
<path id="Vector_3" d="M264.836 318.559V363.539C264.834 367.531 263.24 371.359 260.406 374.181C257.571 377.003 253.728 378.589 249.72 378.59H113.141C111.159 378.593 109.196 378.207 107.364 377.454C105.531 376.701 103.866 375.597 102.462 374.203C101.058 372.809 99.9441 371.153 99.1827 369.33C98.4214 367.507 98.028 365.553 98.025 363.579V318.559H264.836Z" fill="#F2F2F2"/>
<path id="Vector_4" d="M112.691 55.3C112.16 55.3006 111.651 55.5109 111.275 55.8848C110.9 56.2587 110.689 56.7657 110.688 57.2944V93.1933C110.689 93.7221 110.9 94.229 111.275 94.6029C111.651 94.9768 112.16 95.1871 112.691 95.1877H148.729C149.26 95.1871 149.769 94.9768 150.144 94.6029C150.519 94.229 150.731 93.7221 150.731 93.1933V57.2944C150.731 56.7657 150.519 56.2587 150.144 55.8848C149.769 55.5109 149.26 55.3006 148.729 55.3H112.691Z" fill="#D9FBFD"/>
<path id="Vector_5" d="M163.411 55.3C162.881 55.3006 162.372 55.5109 161.996 55.8848C161.621 56.2587 161.41 56.7657 161.409 57.2944V93.1933C161.41 93.7221 161.621 94.229 161.996 94.6029C162.372 94.9768 162.881 95.1871 163.411 95.1877H199.45C199.981 95.1871 200.49 94.9768 200.865 94.6029C201.24 94.229 201.451 93.7221 201.452 93.1933V57.2944C201.451 56.7657 201.24 56.2587 200.865 55.8848C200.49 55.5109 199.981 55.3006 199.45 55.3H163.411Z" fill="#D9FBFD"/>
<path id="Vector_6" d="M214.132 55.3C213.601 55.3006 213.092 55.5109 212.717 55.8848C212.342 56.2587 212.131 56.7657 212.13 57.2944V93.1933C212.131 93.7221 212.342 94.229 212.717 94.6029C213.092 94.9768 213.601 95.1871 214.132 95.1877H250.171C250.701 95.1871 251.21 94.9768 251.586 94.6029C251.961 94.229 252.172 93.7221 252.173 93.1933V57.2944C252.172 56.7657 251.961 56.2587 251.586 55.8848C251.21 55.5109 250.701 55.3006 250.171 55.3H214.132Z" fill="#D9FBFD"/>
<path id="Vector_7" d="M112.774 110.478C112.243 110.479 111.734 110.689 111.359 111.063C110.984 111.437 110.773 111.944 110.772 112.472V148.371C110.773 148.9 110.984 149.407 111.359 149.781C111.734 150.155 112.243 150.365 112.774 150.366H148.813C149.343 150.365 149.852 150.155 150.228 149.781C150.603 149.407 150.814 148.9 150.815 148.371V112.472C150.814 111.944 150.603 111.437 150.228 111.063C149.852 110.689 149.343 110.479 148.813 110.478H112.774Z" fill="#D9FBFD"/>
<path id="Vector_8" d="M163.495 110.478C162.964 110.479 162.455 110.689 162.08 111.063C161.704 111.437 161.493 111.944 161.493 112.472V148.371C161.493 148.9 161.704 149.407 162.08 149.781C162.455 150.155 162.964 150.365 163.495 150.366H199.533C200.064 150.365 200.573 150.155 200.948 149.781C201.324 149.407 201.535 148.9 201.535 148.371V112.472C201.535 111.944 201.324 111.437 200.948 111.063C200.573 110.689 200.064 110.479 199.533 110.478H163.495Z" fill="#D9FBFD"/>
<path id="Vector_9" d="M214.216 110.478C213.685 110.479 213.176 110.689 212.801 111.063C212.425 111.437 212.214 111.944 212.214 112.472V148.371C212.214 148.9 212.425 149.407 212.801 149.781C213.176 150.155 213.685 150.365 214.216 150.366H250.254C250.785 150.365 251.294 150.155 251.669 149.781C252.045 149.407 252.256 148.9 252.256 148.371V112.472C252.256 111.944 252.045 111.437 251.669 111.063C251.294 110.689 250.785 110.479 250.254 110.478H214.216Z" fill="#D9FBFD"/>
<path id="Vector_10" d="M112.857 165.656C112.327 165.657 111.818 165.867 111.442 166.241C111.067 166.615 110.856 167.122 110.855 167.65V203.549C110.856 204.078 111.067 204.585 111.442 204.959C111.818 205.333 112.327 205.543 112.857 205.544H148.896C149.427 205.543 149.936 205.333 150.311 204.959C150.686 204.585 150.898 204.078 150.898 203.549V167.65C150.898 167.122 150.686 166.615 150.311 166.241C149.936 165.867 149.427 165.657 148.896 165.656H112.857Z" fill="#D9FBFD"/>
<path id="Vector_11" d="M163.578 165.656C163.047 165.657 162.539 165.867 162.163 166.241C161.788 166.615 161.577 167.122 161.576 167.65V203.549C161.577 204.078 161.788 204.585 162.163 204.959C162.539 205.333 163.047 205.543 163.578 205.544H199.617C200.148 205.543 200.656 205.333 201.032 204.959C201.407 204.585 201.618 204.078 201.619 203.549V167.65C201.618 167.122 201.407 166.615 201.032 166.241C200.656 165.867 200.148 165.657 199.617 165.656H163.578Z" fill="#D9FBFD"/>
<path id="Vector_12" d="M214.299 165.656C213.768 165.657 213.259 165.867 212.884 166.241C212.509 166.615 212.298 167.122 212.297 167.65V203.549C212.298 204.078 212.509 204.585 212.884 204.959C213.259 205.333 213.768 205.543 214.299 205.544H250.338C250.868 205.543 251.377 205.333 251.753 204.959C252.128 204.585 252.339 204.078 252.34 203.549V167.65C252.339 167.122 252.128 166.615 251.753 166.241C251.377 165.867 250.868 165.657 250.338 165.656H214.299Z" fill="#D9FBFD"/>
<path id="Vector_13" d="M112.774 328.531C112.243 328.531 111.734 328.742 111.359 329.115C110.984 329.489 110.773 329.996 110.772 330.525V366.424C110.773 366.953 110.984 367.46 111.359 367.834C111.734 368.207 112.243 368.418 112.774 368.418H148.813C149.343 368.418 149.852 368.207 150.228 367.834C150.603 367.46 150.814 366.953 150.815 366.424V330.525C150.814 329.996 150.603 329.489 150.228 329.115C149.852 328.742 149.343 328.531 148.813 328.531H112.774Z" fill="#1E1D1D"/>
<path id="Vector_14" d="M163.495 328.531C162.964 328.531 162.455 328.742 162.08 329.115C161.704 329.489 161.493 329.996 161.493 330.525V366.424C161.493 366.953 161.704 367.46 162.08 367.834C162.455 368.207 162.964 368.418 163.495 368.418H199.533C200.064 368.418 200.573 368.207 200.948 367.834C201.324 367.46 201.535 366.953 201.535 366.424V330.525C201.535 329.996 201.324 329.489 200.948 329.115C200.573 328.742 200.064 328.531 199.533 328.531H163.495Z" fill="#1E1D1D"/>
<path id="Vector_15" d="M214.216 328.531C213.685 328.531 213.176 328.742 212.801 329.115C212.425 329.489 212.214 329.996 212.214 330.525V366.424C212.214 366.953 212.425 367.46 212.801 367.834C213.176 368.207 213.685 368.418 214.216 368.418H250.254C250.785 368.418 251.294 368.207 251.669 367.834C252.045 367.46 252.256 366.953 252.256 366.424V330.525C252.256 329.996 252.045 329.489 251.669 329.115C251.294 328.742 250.785 328.531 250.254 328.531H214.216Z" fill="#1E1D1D"/>
<path id="Vector_16" d="M112.941 220.834C112.41 220.834 111.901 221.045 111.526 221.419C111.15 221.793 110.939 222.3 110.939 222.828V258.727C110.939 259.256 111.15 259.763 111.526 260.137C111.901 260.511 112.41 260.721 112.941 260.722H148.979C149.51 260.721 150.019 260.511 150.394 260.137C150.77 259.763 150.981 259.256 150.982 258.727V222.828C150.981 222.3 150.77 221.793 150.394 221.419C150.019 221.045 149.51 220.835 148.979 220.834L112.941 220.834Z" fill="#D9FBFD"/>
<path id="Vector_17" d="M315.902 244.708L317.727 253.715C317.93 254.713 318.331 255.659 318.907 256.499C319.484 257.339 320.224 258.055 321.084 258.604C321.943 259.154 322.905 259.526 323.912 259.698C324.918 259.87 325.949 259.839 326.944 259.607C328.162 259.322 329.29 258.743 330.231 257.922C331.171 257.1 331.894 256.06 332.336 254.895C332.777 253.729 332.925 252.473 332.764 251.237C332.604 250.002 332.141 248.824 331.416 247.809L326.129 240.406L313.052 204.68L315.439 174.08C307.934 171.272 300.293 168.127 296.151 173.672L301.297 207.155L315.902 244.708Z" fill="#FFB9B9"/>
<path id="Vector_18" d="M323.13 250.841C322.665 250.842 322.219 251.026 321.89 251.353C321.562 251.681 321.377 252.125 321.376 252.588V284.034C321.377 284.497 321.562 284.941 321.89 285.269C322.219 285.596 322.665 285.78 323.13 285.781H354.698C355.163 285.78 355.609 285.596 355.937 285.269C356.266 284.941 356.451 284.497 356.452 284.034V252.588C356.451 252.125 356.266 251.681 355.937 251.353C355.609 251.026 355.163 250.842 354.698 250.841H323.13Z" fill="#1E1D1D"/>
<path id="Vector_19" d="M331.59 128.393C331.59 128.208 331.586 128.026 331.583 127.834C331.287 116.147 322 106.993 310.44 106.993C307.653 106.989 304.893 107.542 302.324 108.619C299.755 109.695 297.429 111.274 295.483 113.262C291.499 117.297 289.272 122.734 289.287 128.393V149.349H331.59V128.393Z" fill="#2F2E41"/>
<path id="Vector_20" d="M319.322 382.431C319.44 381.605 319.318 380.763 318.97 380.005C318.623 379.246 318.064 378.602 317.361 378.149L304.782 372L295.297 373.193L293.057 381.191C292.963 381.761 292.985 382.344 293.124 382.905C293.263 383.466 293.515 383.993 293.865 384.454C294.214 384.915 294.655 385.3 295.158 385.586C295.662 385.872 296.219 386.052 296.796 386.117L314.493 386.155C315.626 386.282 316.764 385.964 317.666 385.269C318.568 384.574 319.162 383.556 319.322 382.431Z" fill="#2F2E41"/>
<path id="Vector_21" d="M276.362 253.9L277.82 263.183L277.952 264.034L283.558 299.715L285.291 310.743L285.822 314.126L287.296 324.799L294.166 374.506L306.111 371.809L306.681 314.505L306.779 304.667L306.872 296.351L306.955 289.036L307.287 259.616L276.362 253.9Z" fill="#765A51"/>
<path id="Vector_22" d="M314.872 143.155C323.717 143.155 330.888 136.012 330.888 127.201C330.888 118.39 323.717 111.247 314.872 111.247C306.027 111.247 298.857 118.39 298.857 127.201C298.857 136.012 306.027 143.155 314.872 143.155Z" fill="#FFB9B9"/>
<path id="Vector_23" d="M297.122 154.455L315.273 163.495C314.478 154.531 316.432 145.538 320.878 137.704L305.129 135.311C304.917 141.61 301.717 148.009 297.122 154.455Z" fill="#FFB9B9"/>
<path id="Vector_24" d="M288.313 216.674L320.344 223.587L323.014 202.847C324.751 193.977 327.884 185.301 322.397 178.332L321.593 171.163C321.204 167.695 320.032 164.359 318.165 161.405C316.299 158.451 313.786 155.956 310.815 154.106L301.126 148.074C281.041 158.897 281.849 185.631 288.313 216.674Z" fill="#D9FBFD"/>
<path id="Vector_25" opacity="0.2" d="M285.291 310.743L285.822 314.126L287.296 324.799L306.681 314.505L306.779 304.667L306.872 296.351L285.291 310.743Z" fill="black"/>
<path id="Vector_26" opacity="0.2" d="M276.361 253.9L277.82 263.184L277.952 264.034C280.264 267.862 283.292 271.213 286.871 273.906L306.955 289.036L307.287 259.616L276.361 253.9Z" fill="black"/>
<path id="Vector_27" d="M280.572 310.002L284.309 322.499L332.591 296.855C334.246 295.901 335.669 294.594 336.756 293.027C337.843 291.46 338.568 289.672 338.878 287.793C339.187 285.913 339.075 283.989 338.548 282.158C338.021 280.327 337.093 278.635 335.831 277.204L309.4 247.252L321.145 220.928L287.512 212.154L283.775 220.13C275.969 227.389 272.456 235.86 273.237 245.542C273.648 250.35 275.076 255.016 277.426 259.234C279.776 263.453 282.996 267.128 286.873 270.019L312.07 288.997L280.572 310.002Z" fill="#765A51"/>
<path id="Vector_28" d="M276.909 333.851C277.737 333.915 278.565 333.74 279.297 333.349C280.028 332.959 280.632 332.367 281.037 331.645L288.272 318.731L286.483 309.46L278.395 307.763C277.823 307.706 277.246 307.766 276.697 307.938C276.149 308.111 275.642 308.393 275.207 308.767C274.771 309.141 274.417 309.6 274.165 310.114C273.913 310.629 273.769 311.19 273.742 311.762L272.902 329.33C272.848 330.454 273.237 331.556 273.985 332.4C274.733 333.244 275.782 333.765 276.909 333.851V333.851Z" fill="#2F2E41"/>
<path id="Vector_29" d="M287.245 248.315L286.957 257.499C286.925 258.516 287.099 259.529 287.468 260.478C287.836 261.427 288.393 262.292 289.103 263.023C289.814 263.754 290.665 264.334 291.606 264.731C292.546 265.128 293.558 265.332 294.579 265.332C295.83 265.332 297.061 265.026 298.165 264.44C299.269 263.854 300.211 263.006 300.909 261.972C301.606 260.938 302.037 259.748 302.165 258.509C302.292 257.269 302.111 256.018 301.638 254.864L298.189 246.454L293.652 208.697L302.994 179.449C296.331 175.007 289.613 170.207 284.309 174.663L281.64 208.431L287.245 248.315Z" fill="#FFB9B9"/>
<path id="Vector_30" d="M281.106 178.917C290.941 174.235 298.479 176.623 304.062 185.033L307.681 164.918C308.098 162.601 307.738 160.211 306.657 158.117C305.576 156.023 303.833 154.342 301.697 153.333C300.626 152.826 299.462 152.542 298.277 152.497C297.092 152.452 295.91 152.648 294.803 153.073C293.696 153.497 292.687 154.141 291.838 154.966C290.988 155.791 290.316 156.779 289.862 157.87L281.106 178.917Z" fill="#D9FBFD"/>
<path id="Vector_31" d="M297.319 116.035L301.339 128.775L336.094 128.159C335.975 123.702 334.462 119.393 331.765 115.834C329.068 112.275 325.323 109.644 321.052 108.309C316.781 106.973 312.198 107 307.943 108.385C303.688 109.77 299.974 112.445 297.319 116.035V116.035Z" fill="#2F2E41"/>
<rect id="rect" y="395" width="424" height="48" fill="#D9FBFD"/>
<g id="text">
<path id="Start Uploading Your memories!" d="M40.876 422.78C40.876 423.86 40.684 424.712 40.3 425.336C39.916 425.936 39.352 426.5 38.608 427.028C38.416 427.148 38.152 427.292 37.816 427.46C37.48 427.628 37.108 427.784 36.7 427.928C36.292 428.072 35.86 428.192 35.404 428.288C34.948 428.384 34.528 428.432 34.144 428.432C33.064 428.432 32.248 428.312 31.696 428.072C31.144 427.856 30.868 427.592 30.868 427.28C30.868 426.944 30.964 426.668 31.156 426.452C31.348 426.236 31.516 426.116 31.66 426.092L32.056 426.38C32.176 426.5 32.344 426.632 32.56 426.776C32.776 426.896 33.124 426.956 33.604 426.956C34.06 426.956 34.612 426.884 35.26 426.74C35.908 426.572 36.52 426.332 37.096 426.02C37.696 425.684 38.2 425.276 38.608 424.796C39.04 424.316 39.256 423.764 39.256 423.14C39.256 422.588 38.836 422.084 37.996 421.628C37.18 421.148 35.884 420.824 34.108 420.656C33.196 420.584 32.296 420.476 31.408 420.332C30.52 420.164 29.716 419.948 28.996 419.684C28.3 419.396 27.736 419.048 27.304 418.64C26.872 418.208 26.656 417.68 26.656 417.056C26.656 416.456 26.824 415.88 27.16 415.328C27.496 414.776 27.904 414.272 28.384 413.816C28.888 413.336 29.404 412.916 29.932 412.556C30.46 412.196 30.904 411.896 31.264 411.656C31.552 411.488 31.948 411.272 32.452 411.008C32.98 410.72 33.532 410.456 34.108 410.216C34.708 409.952 35.296 409.736 35.872 409.568C36.472 409.376 36.976 409.28 37.384 409.28C37.864 409.28 38.188 409.412 38.356 409.676C38.524 409.94 38.608 410.312 38.608 410.792C38.608 411.2 38.56 411.632 38.464 412.088C38.368 412.544 38.26 412.988 38.14 413.42C38.02 413.852 37.9 414.236 37.78 414.572C37.684 414.884 37.612 415.088 37.564 415.184C37.468 415.4 37.36 415.544 37.24 415.616C37.12 415.688 37.036 415.724 36.988 415.724C36.892 415.724 36.844 415.664 36.844 415.544C36.844 415.472 36.856 415.34 36.88 415.148C36.928 414.932 36.976 414.68 37.024 414.392C37.096 414.104 37.144 413.792 37.168 413.456C37.216 413.12 37.24 412.784 37.24 412.448C37.24 411.92 37.216 411.536 37.168 411.296C37.12 411.056 36.928 410.936 36.592 410.936C36.256 410.936 35.8 411.032 35.224 411.224C34.648 411.392 34.06 411.608 33.46 411.872C32.812 412.16 32.176 412.532 31.552 412.988C30.952 413.444 30.412 413.912 29.932 414.392C29.452 414.872 29.056 415.34 28.744 415.796C28.456 416.228 28.312 416.576 28.312 416.84C28.312 417.128 28.504 417.404 28.888 417.668C29.296 417.908 29.8 418.124 30.4 418.316C31.024 418.508 31.708 418.676 32.452 418.82C33.196 418.964 33.928 419.072 34.648 419.144C35.248 419.216 35.908 419.312 36.628 419.432C37.348 419.552 38.02 419.744 38.644 420.008C39.268 420.272 39.796 420.632 40.228 421.088C40.66 421.52 40.876 422.084 40.876 422.78ZM52.398 411.728C52.086 412.088 51.642 412.448 51.066 412.808C50.49 413.144 49.914 413.456 49.338 413.744C48.762 414.032 48.258 414.284 47.826 414.5C47.394 414.692 47.178 414.824 47.178 414.896C47.178 414.968 47.226 415.184 47.322 415.544C47.418 415.904 47.526 416.336 47.646 416.84C47.79 417.32 47.934 417.824 48.078 418.352C48.222 418.88 48.342 419.348 48.438 419.756C48.486 419.996 48.546 420.308 48.618 420.692C48.69 421.076 48.75 421.46 48.798 421.844C48.87 422.228 48.93 422.576 48.978 422.888C49.026 423.176 49.05 423.332 49.05 423.356C49.05 423.716 48.99 424.088 48.87 424.472C48.75 424.856 48.558 425.048 48.294 425.048C48.15 425.048 48.018 424.988 47.898 424.868C47.778 424.748 47.67 424.616 47.574 424.472C47.478 424.304 47.406 424.148 47.358 424.004C47.31 423.86 47.286 423.752 47.286 423.68C47.286 423.632 47.286 423.56 47.286 423.464C47.31 423.368 47.322 423.26 47.322 423.14C47.322 422.684 47.25 422.024 47.106 421.16C47.058 420.896 46.962 420.488 46.818 419.936C46.674 419.384 46.53 418.82 46.386 418.244C46.218 417.572 46.026 416.84 45.81 416.048C45.714 415.712 45.654 415.544 45.63 415.544C45.462 415.544 45.174 415.652 44.766 415.868C44.382 416.06 43.938 416.312 43.434 416.624C42.93 416.912 42.402 417.236 41.85 417.596C41.298 417.932 40.782 418.256 40.302 418.568C39.822 418.856 39.414 419.108 39.078 419.324C38.718 419.516 38.502 419.612 38.43 419.612C38.118 419.612 37.866 419.504 37.674 419.288C37.482 419.072 37.386 418.832 37.386 418.568C37.386 418.424 37.59 418.22 37.998 417.956C38.382 417.668 38.874 417.356 39.474 417.02C40.05 416.684 40.686 416.336 41.382 415.976C42.054 415.616 42.678 415.292 43.254 415.004C43.854 414.716 44.346 414.476 44.73 414.284C45.138 414.092 45.342 413.996 45.342 413.996C45.126 412.892 44.946 411.908 44.802 411.044C44.682 410.3 44.562 409.616 44.442 408.992C44.346 408.368 44.298 408.032 44.298 407.984C44.298 407.672 44.358 407.444 44.478 407.3C44.622 407.132 44.778 407.048 44.946 407.048C45.21 407.048 45.378 407.228 45.45 407.588C45.714 408.884 45.954 410.036 46.17 411.044C46.41 412.052 46.638 412.868 46.854 413.492C47.07 413.444 47.442 413.312 47.97 413.096C48.498 412.856 49.05 412.604 49.626 412.34C50.202 412.076 50.718 411.848 51.174 411.656C51.654 411.44 51.93 411.332 52.002 411.332C52.146 411.332 52.23 411.38 52.254 411.476C52.302 411.572 52.35 411.656 52.398 411.728ZM71.4541 420.512C71.4541 420.944 71.2501 421.484 70.8421 422.132C70.4581 422.756 69.9301 423.368 69.2581 423.968C68.5861 424.568 67.8061 425.084 66.9181 425.516C66.0301 425.924 65.1061 426.128 64.1461 426.128C63.7141 426.128 63.2581 426.056 62.7781 425.912C62.2981 425.768 61.8301 425.564 61.3741 425.3C60.9181 425.012 60.5101 424.676 60.1501 424.292C59.7901 423.884 59.5261 423.428 59.3581 422.924C59.2141 423.068 59.0341 423.308 58.8181 423.644C58.6261 423.98 58.4101 424.328 58.1701 424.688C57.9301 425.024 57.6661 425.324 57.3781 425.588C57.0901 425.828 56.7901 425.948 56.4781 425.948C56.1661 425.948 55.9021 425.792 55.6861 425.48C55.4941 425.144 55.3381 424.784 55.2181 424.4C55.0981 423.992 55.0141 423.608 54.9661 423.248C54.9181 422.888 54.8941 422.684 54.8941 422.636C54.8941 422.348 54.9781 421.808 55.1461 421.016C55.3141 420.2 55.5661 419.36 55.9021 418.496C56.2381 417.632 56.6581 416.864 57.1621 416.192C57.6901 415.52 58.3021 415.184 58.9981 415.184C59.2621 415.184 59.4301 415.304 59.5021 415.544C59.5981 415.76 59.6461 415.976 59.6461 416.192V417.272C59.7661 417.368 59.8861 417.44 60.0061 417.488C60.1501 417.512 60.2701 417.56 60.3661 417.632C60.4861 417.68 60.5701 417.764 60.6181 417.884C60.6901 418.004 60.7261 418.196 60.7261 418.46C60.7261 418.628 60.7141 418.784 60.6901 418.928C60.6661 419.048 60.6541 419.168 60.6541 419.288C60.6541 419.912 60.7021 420.524 60.7981 421.124C60.8941 421.724 61.0861 422.264 61.3741 422.744C61.6621 423.2 62.0581 423.584 62.5621 423.896C63.0661 424.184 63.7381 424.328 64.5781 424.328C65.6341 424.328 66.5221 424.112 67.2421 423.68C67.9861 423.224 68.5981 422.732 69.0781 422.204C69.5821 421.652 69.9781 421.16 70.2661 420.728C70.5541 420.272 70.7941 420.044 70.9861 420.044C71.2981 420.044 71.4541 420.2 71.4541 420.512ZM58.8181 418.928C58.8181 418.832 58.7941 418.748 58.7461 418.676C58.6981 418.58 58.6741 418.496 58.6741 418.424C58.6741 418.328 58.6981 418.244 58.7461 418.172C58.7941 418.1 58.8181 418.004 58.8181 417.884C58.8181 417.812 58.7941 417.764 58.7461 417.74C58.6981 417.692 58.6741 417.644 58.6741 417.596C58.4581 417.644 58.2301 417.848 57.9901 418.208C57.7741 418.568 57.5581 418.988 57.3421 419.468C57.1501 419.948 56.9941 420.44 56.8741 420.944C56.7541 421.424 56.6941 421.82 56.6941 422.132C56.6941 422.3 56.7421 422.576 56.8381 422.96C56.9341 423.344 57.0421 423.596 57.1621 423.716C57.5701 422.876 57.9421 422.06 58.2781 421.268C58.6381 420.476 58.8181 419.696 58.8181 418.928ZM80.393 417.02C80.393 417.188 80.321 417.332 80.177 417.452C80.033 417.548 79.865 417.632 79.673 417.704C79.481 417.776 79.289 417.836 79.097 417.884C78.905 417.908 78.749 417.92 78.629 417.92C78.269 417.92 78.029 417.896 77.909 417.848C77.789 417.8 77.693 417.776 77.621 417.776C77.021 417.776 76.541 417.824 76.181 417.92C75.821 418.016 75.533 418.172 75.317 418.388C75.125 418.604 74.993 418.88 74.921 419.216C74.873 419.528 74.849 419.912 74.849 420.368C74.849 421.136 74.873 421.748 74.921 422.204C74.993 422.66 75.053 423.032 75.101 423.32C75.173 423.608 75.233 423.836 75.281 424.004C75.353 424.148 75.389 424.292 75.389 424.436C75.389 424.628 75.281 424.832 75.065 425.048C74.873 425.264 74.693 425.372 74.525 425.372C74.237 425.372 73.973 425.12 73.733 424.616C73.517 424.088 73.325 423.476 73.157 422.78C73.013 422.06 72.893 421.352 72.797 420.656C72.701 419.96 72.653 419.432 72.653 419.072C72.653 418.664 72.689 418.28 72.761 417.92C72.833 417.536 72.929 417.212 73.049 416.948C73.169 416.66 73.301 416.432 73.445 416.264C73.589 416.096 73.733 416.012 73.877 416.012C73.997 416.012 74.093 416.06 74.165 416.156C74.237 416.228 74.297 416.324 74.345 416.444C74.393 416.54 74.441 416.636 74.489 416.732C74.561 416.804 74.645 416.84 74.741 416.84C74.957 416.84 75.305 416.732 75.785 416.516C76.265 416.3 76.853 416.192 77.549 416.192C78.197 416.192 78.677 416.216 78.989 416.264C79.325 416.288 79.649 416.36 79.961 416.48C80.033 416.504 80.117 416.564 80.213 416.66C80.333 416.732 80.393 416.852 80.393 417.02ZM92.8277 411.728C92.5157 412.088 92.0717 412.448 91.4957 412.808C90.9197 413.144 90.3437 413.456 89.7677 413.744C89.1917 414.032 88.6877 414.284 88.2557 414.5C87.8237 414.692 87.6077 414.824 87.6077 414.896C87.6077 414.968 87.6557 415.184 87.7517 415.544C87.8477 415.904 87.9557 416.336 88.0757 416.84C88.2197 417.32 88.3637 417.824 88.5077 418.352C88.6517 418.88 88.7717 419.348 88.8677 419.756C88.9157 419.996 88.9757 420.308 89.0477 420.692C89.1197 421.076 89.1797 421.46 89.2277 421.844C89.2997 422.228 89.3597 422.576 89.4077 422.888C89.4557 423.176 89.4797 423.332 89.4797 423.356C89.4797 423.716 89.4197 424.088 89.2997 424.472C89.1797 424.856 88.9877 425.048 88.7237 425.048C88.5797 425.048 88.4477 424.988 88.3277 424.868C88.2077 424.748 88.0997 424.616 88.0037 424.472C87.9077 424.304 87.8357 424.148 87.7877 424.004C87.7397 423.86 87.7157 423.752 87.7157 423.68C87.7157 423.632 87.7157 423.56 87.7157 423.464C87.7397 423.368 87.7517 423.26 87.7517 423.14C87.7517 422.684 87.6797 422.024 87.5357 421.16C87.4877 420.896 87.3917 420.488 87.2477 419.936C87.1037 419.384 86.9597 418.82 86.8157 418.244C86.6477 417.572 86.4557 416.84 86.2397 416.048C86.1437 415.712 86.0837 415.544 86.0597 415.544C85.8917 415.544 85.6037 415.652 85.1957 415.868C84.8117 416.06 84.3677 416.312 83.8637 416.624C83.3597 416.912 82.8317 417.236 82.2797 417.596C81.7277 417.932 81.2117 418.256 80.7317 418.568C80.2517 418.856 79.8437 419.108 79.5077 419.324C79.1477 419.516 78.9317 419.612 78.8597 419.612C78.5477 419.612 78.2957 419.504 78.1037 419.288C77.9117 419.072 77.8157 418.832 77.8157 418.568C77.8157 418.424 78.0197 418.22 78.4277 417.956C78.8117 417.668 79.3037 417.356 79.9037 417.02C80.4797 416.684 81.1157 416.336 81.8117 415.976C82.4837 415.616 83.1077 415.292 83.6837 415.004C84.2837 414.716 84.7757 414.476 85.1597 414.284C85.5677 414.092 85.7717 413.996 85.7717 413.996C85.5557 412.892 85.3757 411.908 85.2317 411.044C85.1117 410.3 84.9917 409.616 84.8717 408.992C84.7757 408.368 84.7277 408.032 84.7277 407.984C84.7277 407.672 84.7877 407.444 84.9077 407.3C85.0517 407.132 85.2077 407.048 85.3757 407.048C85.6397 407.048 85.8077 407.228 85.8797 407.588C86.1437 408.884 86.3837 410.036 86.5997 411.044C86.8397 412.052 87.0677 412.868 87.2837 413.492C87.4997 413.444 87.8717 413.312 88.3997 413.096C88.9277 412.856 89.4797 412.604 90.0557 412.34C90.6317 412.076 91.1477 411.848 91.6037 411.656C92.0837 411.44 92.3597 411.332 92.4317 411.332C92.5757 411.332 92.6597 411.38 92.6837 411.476C92.7317 411.572 92.7797 411.656 92.8277 411.728ZM124.09 429.656C124.09 429.944 124.018 430.124 123.874 430.196C123.73 430.292 123.562 430.34 123.37 430.34C123.226 430.34 123.034 430.316 122.794 430.268C122.674 430.244 122.494 430.124 122.254 429.908C122.038 429.716 121.798 429.488 121.534 429.224C121.246 428.936 120.934 428.612 120.598 428.252L118.798 426.2C118.75 426.272 118.642 426.428 118.474 426.668C118.306 426.884 118.09 427.124 117.826 427.388C117.586 427.628 117.298 427.844 116.962 428.036C116.626 428.228 116.266 428.324 115.882 428.324C115.618 428.324 115.294 428.24 114.91 428.072C114.55 427.928 114.178 427.712 113.794 427.424C113.41 427.136 113.026 426.788 112.642 426.38C112.282 425.972 111.97 425.516 111.706 425.012C111.37 424.364 111.082 423.692 110.842 422.996C110.626 422.276 110.446 421.556 110.302 420.836C110.182 420.116 110.098 419.408 110.05 418.712C110.002 417.992 109.978 417.32 109.978 416.696C109.978 415.808 110.014 415.172 110.086 414.788C110.182 414.404 110.47 414.212 110.95 414.212C111.142 414.212 111.286 414.284 111.382 414.428C111.502 414.548 111.562 414.68 111.562 414.824C111.562 416.168 111.658 417.536 111.85 418.928C112.042 420.296 112.318 421.556 112.678 422.708C113.038 423.836 113.482 424.76 114.01 425.48C114.562 426.2 115.198 426.56 115.918 426.56C116.23 426.56 116.506 426.452 116.746 426.236C116.986 425.996 117.178 425.72 117.322 425.408C117.49 425.096 117.61 424.796 117.682 424.508C117.754 424.22 117.802 424.004 117.826 423.86C117.682 423.524 117.526 423.08 117.358 422.528C117.214 421.952 117.082 421.328 116.962 420.656C116.842 419.984 116.746 419.288 116.674 418.568C116.602 417.848 116.566 417.152 116.566 416.48C116.566 415.448 116.566 414.608 116.566 413.96C116.59 413.288 116.638 412.772 116.71 412.412C116.782 412.028 116.89 411.776 117.034 411.656C117.178 411.512 117.382 411.44 117.646 411.44C117.79 411.44 117.922 411.488 118.042 411.584C118.186 411.656 118.294 411.74 118.366 411.836C118.462 411.932 118.534 412.028 118.582 412.124C118.63 412.22 118.654 412.28 118.654 412.304C118.654 412.4 118.63 412.484 118.582 412.556C118.534 412.604 118.51 412.676 118.51 412.772C118.51 412.964 118.534 413.24 118.582 413.6C118.654 413.96 118.726 414.332 118.798 414.716C118.942 415.484 119.074 416.36 119.194 417.344C119.338 418.328 119.41 419.468 119.41 420.764V422.276C119.41 422.468 119.506 422.864 119.698 423.464C119.914 424.04 120.382 424.892 121.102 426.02C121.582 426.788 122.026 427.4 122.434 427.856C122.866 428.312 123.214 428.672 123.478 428.936C123.646 429.08 123.79 429.212 123.91 429.332C124.03 429.476 124.09 429.584 124.09 429.656ZM118.582 417.632C118.558 417.488 118.522 417.308 118.474 417.092C118.426 416.876 118.366 416.66 118.294 416.444C118.246 416.228 118.198 416.048 118.15 415.904C118.126 415.76 118.114 415.688 118.114 415.688C118.114 415.952 118.114 416.276 118.114 416.66C118.138 417.02 118.162 417.392 118.186 417.776C118.234 418.136 118.282 418.496 118.33 418.856C118.378 419.192 118.438 419.48 118.51 419.72C118.51 419.552 118.522 419.384 118.546 419.216C118.546 419.072 118.546 418.916 118.546 418.748C118.57 418.556 118.582 418.364 118.582 418.172V417.632ZM135.625 417.596C135.625 418.22 135.445 418.82 135.085 419.396C134.749 419.972 134.329 420.512 133.825 421.016C133.321 421.496 132.769 421.952 132.169 422.384C131.569 422.792 131.017 423.152 130.513 423.464C130.033 423.8 129.637 424.076 129.325 424.292C129.013 424.508 128.857 424.676 128.857 424.796C128.857 425.108 128.893 425.552 128.965 426.128C129.037 426.68 129.121 427.292 129.217 427.964C129.337 428.612 129.445 429.284 129.541 429.98C129.661 430.676 129.745 431.312 129.793 431.888C129.793 431.912 129.805 432.02 129.829 432.212C129.877 432.404 129.925 432.62 129.973 432.86C130.045 433.1 130.093 433.316 130.117 433.508C130.165 433.724 130.189 433.856 130.189 433.904C130.189 434.072 130.177 434.252 130.153 434.444C130.153 434.66 130.117 434.852 130.045 435.02C129.997 435.212 129.913 435.368 129.793 435.488C129.673 435.608 129.517 435.668 129.325 435.668C129.061 435.668 128.869 435.548 128.749 435.308C128.629 435.092 128.569 434.876 128.569 434.66C128.569 434.612 128.569 434.564 128.569 434.516C128.593 434.468 128.605 434.408 128.605 434.336C128.605 434.072 128.509 433.364 128.317 432.212C128.125 431.06 127.909 429.68 127.669 428.072C127.429 426.488 127.213 424.784 127.021 422.96C126.829 421.112 126.733 419.372 126.733 417.74C126.733 417.62 126.745 417.488 126.769 417.344C126.793 417.176 126.805 417.032 126.805 416.912C126.565 416.936 126.205 417.044 125.725 417.236C125.269 417.428 124.813 417.668 124.357 417.956C123.901 418.22 123.493 418.508 123.133 418.82C122.797 419.108 122.629 419.372 122.629 419.612H122.377C122.305 419.612 122.221 419.564 122.125 419.468C122.005 419.372 121.909 419.264 121.837 419.144C121.741 419.024 121.657 418.904 121.585 418.784C121.513 418.664 121.477 418.58 121.477 418.532C121.477 418.028 121.777 417.56 122.377 417.128C122.977 416.672 123.721 416.276 124.609 415.94C125.521 415.58 126.517 415.304 127.597 415.112C128.677 414.896 129.697 414.788 130.657 414.788C131.593 414.788 132.373 414.896 132.997 415.112C133.645 415.328 134.161 415.592 134.545 415.904C134.929 416.192 135.205 416.492 135.373 416.804C135.541 417.116 135.625 417.38 135.625 417.596ZM133.861 417.488C133.861 417.248 133.561 417.008 132.961 416.768C132.361 416.504 131.653 416.372 130.837 416.372C130.117 416.372 129.589 416.396 129.253 416.444C128.917 416.492 128.689 416.54 128.569 416.588C128.521 416.972 128.485 417.428 128.461 417.956C128.437 418.484 128.425 419.024 128.425 419.576C128.425 420.152 128.437 420.716 128.461 421.268C128.509 421.796 128.557 422.24 128.605 422.6C128.941 422.384 129.397 422.096 129.973 421.736C130.573 421.352 131.161 420.932 131.737 420.476C132.313 419.996 132.805 419.504 133.213 419C133.645 418.472 133.861 417.968 133.861 417.488ZM142.427 426.956C142.427 427.148 142.355 427.292 142.211 427.388C142.067 427.484 141.899 427.532 141.707 427.532C141.491 427.532 141.263 427.328 141.023 426.92C140.807 426.512 140.591 425.996 140.375 425.372C140.159 424.748 139.955 424.076 139.763 423.356C139.571 422.612 139.403 421.928 139.259 421.304C139.115 420.656 138.995 420.116 138.899 419.684C138.827 419.252 138.791 419.012 138.791 418.964C138.791 418.868 138.743 418.616 138.647 418.208C138.575 417.8 138.467 417.164 138.323 416.3C138.203 415.436 138.059 414.32 137.891 412.952C137.747 411.56 137.591 409.844 137.423 407.804C137.423 407.588 137.459 407.312 137.531 406.976C137.603 406.64 137.771 406.472 138.035 406.472C138.371 406.472 138.623 406.7 138.791 407.156C138.983 407.612 139.127 408.176 139.223 408.848C139.343 409.52 139.427 410.228 139.475 410.972C139.523 411.692 139.583 412.328 139.655 412.88C139.751 413.648 139.835 414.344 139.907 414.968C140.003 415.592 140.087 416.216 140.159 416.84C140.255 417.44 140.363 418.076 140.483 418.748C140.627 419.42 140.795 420.164 140.987 420.98L142.427 426.956ZM151.677 420.224C151.677 420.752 151.605 421.256 151.461 421.736C151.317 422.216 151.125 422.636 150.885 422.996C150.645 423.356 150.357 423.644 150.021 423.86C149.709 424.052 149.361 424.148 148.977 424.148C148.305 424.148 147.777 423.956 147.393 423.572C147.009 423.188 146.709 422.744 146.493 422.24C146.301 421.736 146.169 421.232 146.097 420.728C146.049 420.2 146.025 419.804 146.025 419.54C146.025 419.108 146.085 418.628 146.205 418.1C146.349 417.548 146.529 417.044 146.745 416.588C146.985 416.132 147.249 415.748 147.537 415.436C147.825 415.124 148.125 414.968 148.437 414.968C148.509 414.968 148.617 414.992 148.761 415.04C148.929 415.088 149.097 415.16 149.265 415.256C149.433 415.352 149.577 415.472 149.697 415.616C149.841 415.76 149.937 415.928 149.985 416.12C150.249 416.144 150.513 416.24 150.777 416.408C151.041 416.576 151.185 416.708 151.209 416.804C151.401 417.428 151.521 418.052 151.569 418.676C151.641 419.3 151.677 419.816 151.677 420.224ZM150.057 419.576C150.057 419.216 150.021 418.844 149.949 418.46C149.877 418.052 149.733 417.644 149.517 417.236C149.469 417.26 149.409 417.272 149.337 417.272C149.241 417.272 149.157 417.26 149.085 417.236C149.037 417.212 148.989 417.2 148.941 417.2C148.653 417.2 148.425 417.284 148.257 417.452C148.089 417.596 147.957 417.8 147.861 418.064C147.789 418.304 147.741 418.568 147.717 418.856C147.693 419.144 147.681 419.42 147.681 419.684C147.681 419.948 147.693 420.248 147.717 420.584C147.741 420.896 147.789 421.196 147.861 421.484C147.957 421.772 148.077 422.024 148.221 422.24C148.365 422.432 148.557 422.528 148.797 422.528C149.037 422.528 149.241 422.408 149.409 422.168C149.577 421.904 149.709 421.604 149.805 421.268C149.901 420.932 149.961 420.608 149.985 420.296C150.033 419.96 150.057 419.72 150.057 419.576ZM172.423 420.512C172.423 420.944 172.219 421.484 171.811 422.132C171.427 422.756 170.899 423.368 170.227 423.968C169.555 424.568 168.775 425.084 167.887 425.516C166.999 425.924 166.075 426.128 165.115 426.128C164.683 426.128 164.227 426.056 163.747 425.912C163.267 425.768 162.799 425.564 162.343 425.3C161.887 425.012 161.479 424.676 161.119 424.292C160.759 423.884 160.495 423.428 160.327 422.924C160.183 423.068 160.003 423.308 159.787 423.644C159.595 423.98 159.379 424.328 159.139 424.688C158.899 425.024 158.635 425.324 158.347 425.588C158.059 425.828 157.759 425.948 157.447 425.948C157.135 425.948 156.871 425.792 156.655 425.48C156.463 425.144 156.307 424.784 156.187 424.4C156.067 423.992 155.983 423.608 155.935 423.248C155.887 422.888 155.863 422.684 155.863 422.636C155.863 422.348 155.947 421.808 156.115 421.016C156.283 420.2 156.535 419.36 156.871 418.496C157.207 417.632 157.627 416.864 158.131 416.192C158.659 415.52 159.271 415.184 159.967 415.184C160.231 415.184 160.399 415.304 160.471 415.544C160.567 415.76 160.615 415.976 160.615 416.192V417.272C160.735 417.368 160.855 417.44 160.975 417.488C161.119 417.512 161.239 417.56 161.335 417.632C161.455 417.68 161.539 417.764 161.587 417.884C161.659 418.004 161.695 418.196 161.695 418.46C161.695 418.628 161.683 418.784 161.659 418.928C161.635 419.048 161.623 419.168 161.623 419.288C161.623 419.912 161.671 420.524 161.767 421.124C161.863 421.724 162.055 422.264 162.343 422.744C162.631 423.2 163.027 423.584 163.531 423.896C164.035 424.184 164.707 424.328 165.547 424.328C166.603 424.328 167.491 424.112 168.211 423.68C168.955 423.224 169.567 422.732 170.047 422.204C170.551 421.652 170.947 421.16 171.235 420.728C171.523 420.272 171.763 420.044 171.955 420.044C172.267 420.044 172.423 420.2 172.423 420.512ZM159.787 418.928C159.787 418.832 159.763 418.748 159.715 418.676C159.667 418.58 159.643 418.496 159.643 418.424C159.643 418.328 159.667 418.244 159.715 418.172C159.763 418.1 159.787 418.004 159.787 417.884C159.787 417.812 159.763 417.764 159.715 417.74C159.667 417.692 159.643 417.644 159.643 417.596C159.427 417.644 159.199 417.848 158.959 418.208C158.743 418.568 158.527 418.988 158.311 419.468C158.119 419.948 157.963 420.44 157.843 420.944C157.723 421.424 157.663 421.82 157.663 422.132C157.663 422.3 157.711 422.576 157.807 422.96C157.903 423.344 158.011 423.596 158.131 423.716C158.539 422.876 158.911 422.06 159.247 421.268C159.607 420.476 159.787 419.696 159.787 418.928ZM183.054 422.204C183.054 422.324 182.994 422.444 182.874 422.564C182.778 422.66 182.718 422.768 182.694 422.888C182.694 423.152 182.742 423.404 182.838 423.644C182.958 423.884 183.018 424.172 183.018 424.508C183.018 424.82 182.922 424.976 182.73 424.976C182.49 424.976 182.31 425.012 182.19 425.084C182.094 425.132 181.914 425.18 181.65 425.228C181.506 425.228 181.35 425.096 181.182 424.832C181.086 424.712 181.002 424.568 180.93 424.4C180.93 424.376 180.858 424.424 180.714 424.544C180.594 424.664 180.378 424.808 180.066 424.976C179.778 425.12 179.37 425.264 178.842 425.408C178.338 425.528 177.69 425.588 176.898 425.588C176.226 425.588 175.638 425.444 175.134 425.156C174.63 424.844 174.21 424.448 173.874 423.968C173.562 423.488 173.322 422.948 173.154 422.348C173.01 421.724 172.938 421.1 172.938 420.476C172.938 419.9 172.998 419.36 173.118 418.856C173.262 418.328 173.454 417.872 173.694 417.488C173.934 417.08 174.234 416.756 174.594 416.516C174.954 416.276 175.374 416.156 175.854 416.156C176.31 416.156 176.766 416.3 177.222 416.588C177.678 416.876 178.086 417.188 178.446 417.524C178.806 417.86 179.094 418.172 179.31 418.46C179.55 418.724 179.67 418.856 179.67 418.856C179.334 416.984 179.034 415.292 178.77 413.78C178.65 413.132 178.53 412.496 178.41 411.872C178.314 411.224 178.218 410.648 178.122 410.144C178.026 409.64 177.942 409.22 177.87 408.884C177.822 408.524 177.798 408.308 177.798 408.236C177.774 408.092 177.75 407.84 177.726 407.48C177.702 407.096 177.678 406.7 177.654 406.292C177.63 405.884 177.606 405.512 177.582 405.176C177.558 404.84 177.534 404.624 177.51 404.528C177.438 404.288 177.342 403.988 177.222 403.628C177.126 403.268 177.078 403.064 177.078 403.016C177.078 402.896 177.138 402.752 177.258 402.584C177.378 402.392 177.534 402.296 177.726 402.296C177.87 402.296 178.002 402.308 178.122 402.332C178.242 402.356 178.35 402.428 178.446 402.548C178.542 402.668 178.626 402.86 178.698 403.124C178.794 403.364 178.878 403.712 178.95 404.168C178.974 404.408 179.046 404.864 179.166 405.536C179.286 406.208 179.406 406.94 179.526 407.732C179.646 408.524 179.766 409.28 179.886 410C180.006 410.72 180.09 411.248 180.138 411.584C180.258 412.496 180.414 413.492 180.606 414.572C180.822 415.628 181.038 416.648 181.254 417.632C181.47 418.616 181.686 419.492 181.902 420.26C182.118 421.004 182.31 421.508 182.478 421.772C182.526 421.868 182.622 421.94 182.766 421.988C182.91 422.012 183.006 422.084 183.054 422.204ZM180.39 422.924C180.366 422.852 180.21 422.552 179.922 422.024C179.658 421.472 179.31 420.884 178.878 420.26C178.47 419.612 178.002 419.036 177.474 418.532C176.97 418.028 176.478 417.776 175.998 417.776C175.59 417.776 175.254 418.088 174.99 418.712C174.75 419.336 174.63 420.056 174.63 420.872C174.63 421.784 174.894 422.516 175.422 423.068C175.974 423.62 176.586 423.896 177.258 423.896C177.834 423.896 178.434 423.8 179.058 423.608C179.682 423.416 180.126 423.188 180.39 422.924ZM187.962 411.44C187.962 411.488 187.878 411.584 187.71 411.728C187.542 411.872 187.338 412.028 187.098 412.196C186.882 412.34 186.654 412.472 186.414 412.592C186.174 412.712 185.982 412.772 185.838 412.772C185.742 412.772 185.61 412.772 185.442 412.772C185.298 412.748 185.142 412.7 184.974 412.628C184.83 412.556 184.698 412.46 184.578 412.34C184.458 412.196 184.398 412.016 184.398 411.8C184.398 411.464 184.518 411.152 184.758 410.864C184.998 410.552 185.31 410.396 185.694 410.396C185.766 410.396 185.922 410.432 186.162 410.504C186.426 410.552 186.69 410.624 186.954 410.72C187.218 410.816 187.446 410.924 187.638 411.044C187.854 411.164 187.962 411.296 187.962 411.44ZM189.15 424.904C189.15 425.072 189.018 425.216 188.754 425.336C188.514 425.456 188.334 425.516 188.214 425.516C187.974 425.516 187.758 425.36 187.566 425.048C187.374 424.736 187.206 424.376 187.062 423.968C186.918 423.56 186.798 423.176 186.702 422.816C186.606 422.432 186.534 422.168 186.486 422.024C186.414 421.784 186.318 421.496 186.198 421.16C186.078 420.824 185.958 420.5 185.838 420.188C185.742 419.876 185.658 419.6 185.586 419.36C185.514 419.12 185.478 418.988 185.478 418.964C185.478 418.628 185.538 418.316 185.658 418.028C185.802 417.74 185.97 417.596 186.162 417.596C186.378 417.596 186.606 417.764 186.846 418.1C187.086 418.436 187.314 418.868 187.53 419.396C187.77 419.9 187.986 420.464 188.178 421.088C188.37 421.688 188.538 422.264 188.682 422.816C188.826 423.344 188.934 423.812 189.006 424.22C189.102 424.604 189.15 424.832 189.15 424.904ZM202.228 423.572C202.228 423.716 202.18 423.86 202.084 424.004C201.988 424.148 201.868 424.28 201.724 424.4C201.604 424.52 201.46 424.628 201.292 424.724C201.148 424.796 201.016 424.832 200.896 424.832C200.488 424.832 199.96 424.748 199.312 424.58C198.688 424.388 198.184 424.1 197.8 423.716C197.392 423.308 197.032 422.828 196.72 422.276C196.408 421.7 196.06 420.86 195.676 419.756C195.412 420.812 195.1 421.856 194.74 422.888C194.404 423.92 193.852 424.868 193.084 425.732C193.036 425.78 192.964 425.804 192.868 425.804C192.7 425.804 192.52 425.72 192.328 425.552C192.136 425.384 192.04 425.216 192.04 425.048C192.04 424.88 192.016 424.496 191.968 423.896C191.944 423.272 191.908 422.588 191.86 421.844C191.812 421.076 191.764 420.308 191.716 419.54C191.692 418.748 191.68 418.1 191.68 417.596C191.68 417.356 191.692 417.044 191.716 416.66C191.74 416.252 191.812 415.904 191.932 415.616C191.956 415.568 192.04 415.472 192.184 415.328C192.352 415.184 192.532 415.112 192.724 415.112C192.892 415.112 192.988 415.22 193.012 415.436C193.036 415.652 193.048 415.892 193.048 416.156V421.844C193.048 421.964 193.06 422.132 193.084 422.348C193.132 422.564 193.192 422.72 193.264 422.816C193.528 422.24 193.768 421.568 193.984 420.8C194.224 420.008 194.452 419.264 194.668 418.568C194.884 417.848 195.1 417.248 195.316 416.768C195.532 416.264 195.748 416.012 195.964 416.012C196.204 416.012 196.396 416.06 196.54 416.156C196.684 416.252 196.804 416.444 196.9 416.732C197.02 417.428 197.116 418.052 197.188 418.604C197.26 419.132 197.344 419.612 197.44 420.044C197.56 420.476 197.716 420.884 197.908 421.268C198.124 421.628 198.412 421.964 198.772 422.276C199.108 422.588 199.48 422.816 199.888 422.96C200.32 423.104 200.692 423.176 201.004 423.176C201.148 423.176 201.304 423.152 201.472 423.104C201.64 423.032 201.76 422.996 201.832 422.996C201.928 422.996 202.012 423.08 202.084 423.248C202.18 423.416 202.228 423.524 202.228 423.572ZM213.013 424.832C213.013 425.096 212.917 425.276 212.725 425.372C212.533 425.468 212.437 425.6 212.437 425.768C212.413 425.744 212.461 425.876 212.581 426.164C212.701 426.452 212.809 426.752 212.905 427.064C213.073 427.712 213.217 428.276 213.337 428.756C213.481 429.236 213.589 429.68 213.661 430.088C213.757 430.496 213.829 430.904 213.877 431.312C213.925 431.72 213.949 432.176 213.949 432.68C213.949 433.184 213.865 433.7 213.697 434.228C213.529 434.756 213.289 435.224 212.977 435.632C212.665 436.04 212.281 436.376 211.825 436.64C211.369 436.904 210.853 437.036 210.277 437.036C209.389 437.036 208.681 436.856 208.153 436.496C207.649 436.136 207.265 435.728 207.001 435.272C206.737 434.816 206.569 434.36 206.497 433.904C206.425 433.472 206.389 433.184 206.389 433.04C206.389 432.152 206.617 431.264 207.073 430.376C207.529 429.488 208.033 428.684 208.585 427.964C209.137 427.244 209.641 426.644 210.097 426.164C210.553 425.684 210.781 425.408 210.781 425.336L210.385 424.148C210.145 424.436 209.929 424.76 209.737 425.12C209.569 425.456 209.377 425.78 209.161 426.092C208.969 426.38 208.729 426.632 208.441 426.848C208.177 427.04 207.841 427.136 207.433 427.136C207.001 427.136 206.569 427.004 206.137 426.74C205.705 426.476 205.321 426.08 204.985 425.552C204.649 425.024 204.373 424.388 204.157 423.644C203.965 422.9 203.869 422.036 203.869 421.052C203.869 420.5 203.953 419.816 204.121 419C204.289 418.16 204.553 417.356 204.913 416.588C205.273 415.82 205.717 415.172 206.245 414.644C206.797 414.092 207.433 413.816 208.153 413.816C208.561 413.816 208.933 413.888 209.269 414.032C209.629 414.176 209.809 414.356 209.809 414.572C209.809 414.764 209.773 414.92 209.701 415.04C209.629 415.16 209.533 415.28 209.413 415.4C209.341 415.352 209.257 415.304 209.161 415.256C209.089 415.208 208.981 415.184 208.837 415.184C208.309 415.184 207.829 415.424 207.397 415.904C206.989 416.36 206.641 416.936 206.353 417.632C206.065 418.304 205.837 419.012 205.669 419.756C205.525 420.5 205.453 421.148 205.453 421.7C205.453 422.924 205.657 423.86 206.065 424.508C206.473 425.132 206.905 425.444 207.361 425.444C207.577 425.444 207.805 425.288 208.045 424.976C208.309 424.64 208.549 424.28 208.765 423.896C209.005 423.488 209.209 423.104 209.377 422.744C209.545 422.384 209.641 422.168 209.665 422.096C209.713 421.856 209.737 421.58 209.737 421.268C209.737 421.004 209.725 420.716 209.701 420.404C209.701 420.068 209.701 419.732 209.701 419.396C209.701 418.772 209.749 418.256 209.845 417.848C209.941 417.416 210.181 417.2 210.565 417.2C210.949 417.2 211.225 417.32 211.393 417.56C211.561 417.776 211.645 418.04 211.645 418.352C211.645 418.568 211.633 418.832 211.609 419.144C211.609 419.432 211.609 419.72 211.609 420.008C211.609 420.272 211.597 420.512 211.573 420.728C211.573 420.92 211.573 421.04 211.573 421.088C211.573 421.232 211.585 421.448 211.609 421.736C211.657 422 211.693 422.276 211.717 422.564C211.765 422.828 211.801 423.08 211.825 423.32C211.873 423.536 211.909 423.68 211.933 423.752C211.957 423.824 211.993 423.932 212.041 424.076C212.089 424.22 212.137 424.328 212.185 424.4C212.209 424.352 212.257 424.304 212.329 424.256C212.401 424.184 212.461 424.124 212.509 424.076C212.629 424.148 212.737 424.292 212.833 424.508C212.953 424.7 213.013 424.808 213.013 424.832ZM211.789 429.404C211.693 429.02 211.585 428.636 211.465 428.252C211.345 427.868 211.225 427.472 211.105 427.064C210.697 427.568 210.301 428.048 209.917 428.504C209.557 428.984 209.221 429.452 208.909 429.908C208.621 430.364 208.381 430.832 208.189 431.312C208.021 431.816 207.937 432.344 207.937 432.896C207.937 433.64 208.141 434.252 208.549 434.732C208.981 435.212 209.449 435.452 209.953 435.452C210.505 435.452 211.021 435.248 211.501 434.84C212.005 434.432 212.257 433.844 212.257 433.076C212.257 432.572 212.245 432.152 212.221 431.816C212.197 431.48 212.161 431.18 212.113 430.916C212.089 430.676 212.041 430.436 211.969 430.196C211.921 429.98 211.861 429.716 211.789 429.404ZM240.881 415.94C240.881 416.276 240.797 416.516 240.629 416.66C240.485 416.804 240.317 416.876 240.125 416.876C239.909 416.876 239.693 416.84 239.477 416.768C239.285 416.696 239.033 416.6 238.721 416.48L238.181 416.264C238.133 416.384 238.097 416.54 238.073 416.732C238.073 416.9 238.073 417.044 238.073 417.164C238.073 418.004 238.109 418.916 238.181 419.9C238.253 420.884 238.337 421.868 238.433 422.852C238.529 423.836 238.637 424.796 238.757 425.732C238.901 426.668 239.021 427.508 239.117 428.252C239.213 429.02 239.297 429.656 239.369 430.16C239.441 430.688 239.477 431.024 239.477 431.168V432.068C239.477 432.332 239.441 432.572 239.369 432.788C239.321 433.004 239.201 433.112 239.009 433.112C238.649 433.112 238.337 432.812 238.073 432.212C237.833 431.636 237.629 430.964 237.461 430.196C237.317 429.452 237.209 428.72 237.137 428C237.065 427.304 237.029 426.836 237.029 426.596C237.029 426.428 236.993 426.02 236.921 425.372C236.873 424.724 236.813 424.004 236.741 423.212C236.669 422.396 236.597 421.58 236.525 420.764C236.477 419.924 236.453 419.216 236.453 418.64C236.453 418.4 236.441 418.136 236.417 417.848C236.417 417.536 236.417 417.248 236.417 416.984V415.868C236.417 415.484 236.141 415.088 235.589 414.68C235.061 414.272 234.413 413.828 233.645 413.348C232.877 412.844 232.085 412.28 231.269 411.656C230.453 411.008 229.781 410.24 229.253 409.352C229.181 409.328 229.145 409.22 229.145 409.028C229.145 408.692 229.217 408.392 229.361 408.128C229.505 407.864 229.697 407.732 229.937 407.732C230.009 407.732 230.117 407.828 230.261 408.02C230.405 408.188 230.585 408.404 230.801 408.668C231.017 408.932 231.269 409.232 231.557 409.568C231.845 409.88 232.169 410.18 232.529 410.468C232.769 410.684 233.105 410.96 233.537 411.296C233.969 411.608 234.389 411.92 234.797 412.232C235.229 412.544 235.601 412.82 235.913 413.06C236.225 413.276 236.393 413.384 236.417 413.384C236.513 413.384 236.573 413.288 236.597 413.096C236.621 412.904 236.633 412.784 236.633 412.736L236.813 410.576C236.933 409.352 237.077 408.248 237.245 407.264C237.437 406.256 237.533 405.38 237.533 404.636C237.533 404.564 237.509 404.42 237.461 404.204C237.413 403.988 237.389 403.844 237.389 403.772C237.389 403.628 237.437 403.52 237.533 403.448C237.629 403.352 237.737 403.28 237.857 403.232C238.001 403.16 238.169 403.112 238.361 403.088C238.697 403.088 238.937 403.22 239.081 403.484C239.225 403.724 239.297 403.952 239.297 404.168C239.297 405.032 239.237 405.872 239.117 406.688C239.021 407.504 238.901 408.32 238.757 409.136C238.637 409.952 238.517 410.792 238.397 411.656C238.301 412.496 238.253 413.384 238.253 414.32C238.253 414.464 238.337 414.62 238.505 414.788C238.673 414.932 238.877 415.076 239.117 415.22C239.381 415.34 239.669 415.472 239.981 415.616C240.293 415.736 240.593 415.844 240.881 415.94ZM248.673 420.224C248.673 420.752 248.601 421.256 248.457 421.736C248.313 422.216 248.121 422.636 247.881 422.996C247.641 423.356 247.353 423.644 247.017 423.86C246.705 424.052 246.357 424.148 245.973 424.148C245.301 424.148 244.773 423.956 244.389 423.572C244.005 423.188 243.705 422.744 243.489 422.24C243.297 421.736 243.165 421.232 243.093 420.728C243.045 420.2 243.021 419.804 243.021 419.54C243.021 419.108 243.081 418.628 243.201 418.1C243.345 417.548 243.525 417.044 243.741 416.588C243.981 416.132 244.245 415.748 244.533 415.436C244.821 415.124 245.121 414.968 245.433 414.968C245.505 414.968 245.613 414.992 245.757 415.04C245.925 415.088 246.093 415.16 246.261 415.256C246.429 415.352 246.573 415.472 246.693 415.616C246.837 415.76 246.933 415.928 246.981 416.12C247.245 416.144 247.509 416.24 247.773 416.408C248.037 416.576 248.181 416.708 248.205 416.804C248.397 417.428 248.517 418.052 248.565 418.676C248.637 419.3 248.673 419.816 248.673 420.224ZM247.053 419.576C247.053 419.216 247.017 418.844 246.945 418.46C246.873 418.052 246.729 417.644 246.513 417.236C246.465 417.26 246.405 417.272 246.333 417.272C246.237 417.272 246.153 417.26 246.081 417.236C246.033 417.212 245.985 417.2 245.937 417.2C245.649 417.2 245.421 417.284 245.253 417.452C245.085 417.596 244.953 417.8 244.857 418.064C244.785 418.304 244.737 418.568 244.713 418.856C244.689 419.144 244.677 419.42 244.677 419.684C244.677 419.948 244.689 420.248 244.713 420.584C244.737 420.896 244.785 421.196 244.857 421.484C244.953 421.772 245.073 422.024 245.217 422.24C245.361 422.432 245.553 422.528 245.793 422.528C246.033 422.528 246.237 422.408 246.405 422.168C246.573 421.904 246.705 421.604 246.801 421.268C246.897 420.932 246.957 420.608 246.981 420.296C247.029 419.96 247.053 419.72 247.053 419.576ZM264.163 422.024C264.163 422.24 264.019 422.468 263.731 422.708C263.443 422.948 263.107 423.176 262.723 423.392C262.339 423.584 261.943 423.752 261.535 423.896C261.151 424.04 260.863 424.112 260.671 424.112C260.455 424.112 260.215 424.052 259.951 423.932C259.711 423.812 259.471 423.668 259.231 423.5C259.015 423.332 258.823 423.176 258.655 423.032C258.487 422.888 258.379 422.792 258.331 422.744C258.259 422.816 258.151 422.96 258.007 423.176C257.863 423.392 257.683 423.632 257.467 423.896C257.275 424.136 257.059 424.352 256.819 424.544C256.603 424.736 256.375 424.832 256.135 424.832C255.511 424.832 254.971 424.496 254.515 423.824C254.059 423.152 253.675 422.384 253.363 421.52C253.075 420.656 252.847 419.828 252.679 419.036C252.535 418.22 252.463 417.668 252.463 417.38C252.463 417.212 252.547 417.08 252.715 416.984C252.907 416.864 253.051 416.804 253.147 416.804C253.483 416.804 253.711 416.924 253.831 417.164C253.951 417.38 254.011 417.62 254.011 417.884C254.011 418.1 254.071 418.484 254.191 419.036C254.335 419.588 254.503 420.152 254.695 420.728C254.887 421.304 255.091 421.82 255.307 422.276C255.523 422.708 255.715 422.924 255.883 422.924C256.195 422.924 256.459 422.732 256.675 422.348C256.915 421.94 257.107 421.484 257.251 420.98C257.395 420.452 257.503 419.96 257.575 419.504C257.647 419.024 257.683 418.712 257.683 418.568C257.683 418.544 257.683 418.472 257.683 418.352C257.707 418.208 257.731 418.064 257.755 417.92C257.779 417.776 257.791 417.644 257.791 417.524C257.815 417.404 257.827 417.32 257.827 417.272C257.827 417.104 257.791 416.996 257.719 416.948C257.647 416.876 257.611 416.744 257.611 416.552C257.611 416.408 257.683 416.276 257.827 416.156C257.971 416.012 258.283 415.94 258.763 415.94C258.955 415.94 259.099 416 259.195 416.12C259.315 416.216 259.399 416.336 259.447 416.48C259.495 416.624 259.519 416.768 259.519 416.912C259.543 417.032 259.555 417.116 259.555 417.164C259.555 417.188 259.543 417.356 259.519 417.668C259.495 417.98 259.471 418.328 259.447 418.712C259.447 419.072 259.435 419.42 259.411 419.756C259.387 420.092 259.375 420.296 259.375 420.368C259.375 420.44 259.411 420.584 259.483 420.8C259.555 421.016 259.639 421.244 259.735 421.484C259.855 421.7 259.987 421.904 260.131 422.096C260.275 422.264 260.431 422.348 260.599 422.348C260.887 422.348 261.151 422.312 261.391 422.24C261.655 422.144 261.895 422.048 262.111 421.952C262.351 421.832 262.567 421.736 262.759 421.664C262.951 421.568 263.131 421.52 263.299 421.52C263.515 421.52 263.707 421.568 263.875 421.664C264.067 421.76 264.163 421.88 264.163 422.024ZM274.104 417.02C274.104 417.188 274.032 417.332 273.888 417.452C273.744 417.548 273.576 417.632 273.384 417.704C273.192 417.776 273 417.836 272.808 417.884C272.616 417.908 272.46 417.92 272.34 417.92C271.98 417.92 271.74 417.896 271.62 417.848C271.5 417.8 271.404 417.776 271.332 417.776C270.732 417.776 270.252 417.824 269.892 417.92C269.532 418.016 269.244 418.172 269.028 418.388C268.836 418.604 268.704 418.88 268.632 419.216C268.584 419.528 268.56 419.912 268.56 420.368C268.56 421.136 268.584 421.748 268.632 422.204C268.704 422.66 268.764 423.032 268.812 423.32C268.884 423.608 268.944 423.836 268.992 424.004C269.064 424.148 269.1 424.292 269.1 424.436C269.1 424.628 268.992 424.832 268.776 425.048C268.584 425.264 268.404 425.372 268.236 425.372C267.948 425.372 267.684 425.12 267.444 424.616C267.228 424.088 267.036 423.476 266.868 422.78C266.724 422.06 266.604 421.352 266.508 420.656C266.412 419.96 266.364 419.432 266.364 419.072C266.364 418.664 266.4 418.28 266.472 417.92C266.544 417.536 266.64 417.212 266.76 416.948C266.88 416.66 267.012 416.432 267.156 416.264C267.3 416.096 267.444 416.012 267.588 416.012C267.708 416.012 267.804 416.06 267.876 416.156C267.948 416.228 268.008 416.324 268.056 416.444C268.104 416.54 268.152 416.636 268.2 416.732C268.272 416.804 268.356 416.84 268.452 416.84C268.668 416.84 269.016 416.732 269.496 416.516C269.976 416.3 270.564 416.192 271.26 416.192C271.908 416.192 272.388 416.216 272.7 416.264C273.036 416.288 273.36 416.36 273.672 416.48C273.744 416.504 273.828 416.564 273.924 416.66C274.044 416.732 274.104 416.852 274.104 417.02ZM307.889 424.616C307.889 424.808 307.829 424.976 307.709 425.12C307.589 425.264 307.445 425.384 307.277 425.48C307.109 425.552 306.929 425.612 306.737 425.66C306.569 425.708 306.425 425.732 306.305 425.732C305.801 425.732 305.369 425.468 305.009 424.94C304.649 424.388 304.349 423.788 304.109 423.14C303.869 422.468 303.689 421.844 303.569 421.268C303.473 420.692 303.425 420.38 303.425 420.332C303.281 420.596 303.125 421.04 302.957 421.664C302.813 422.288 302.633 422.924 302.417 423.572C302.201 424.196 301.925 424.76 301.589 425.264C301.277 425.744 300.869 425.984 300.365 425.984C300.125 425.984 299.897 425.84 299.681 425.552C299.465 425.264 299.261 424.892 299.069 424.436C298.877 423.98 298.685 423.464 298.493 422.888C298.325 422.312 298.145 421.748 297.953 421.196C297.785 420.644 297.617 420.128 297.449 419.648C297.281 419.144 297.113 418.748 296.945 418.46C296.801 418.82 296.669 419.312 296.549 419.936C296.453 420.56 296.369 421.22 296.297 421.916C296.225 422.588 296.165 423.26 296.117 423.932C296.069 424.604 296.045 425.192 296.045 425.696C296.045 426.032 295.949 426.272 295.757 426.416C295.589 426.56 295.409 426.632 295.217 426.632C294.953 426.632 294.689 426.464 294.425 426.128C294.161 425.768 293.897 425.312 293.633 424.76C293.369 424.208 293.117 423.584 292.877 422.888C292.661 422.192 292.457 421.496 292.265 420.8C292.097 420.104 291.965 419.444 291.869 418.82C291.773 418.172 291.725 417.632 291.725 417.2C291.725 416.888 291.737 416.6 291.761 416.336C291.785 416.12 291.797 415.916 291.797 415.724C291.821 415.532 291.833 415.424 291.833 415.4C291.833 415.328 291.809 415.28 291.761 415.256C291.737 415.232 291.725 415.172 291.725 415.076C291.725 415.004 291.809 414.896 291.977 414.752C292.169 414.584 292.361 414.5 292.553 414.5C292.889 414.5 293.105 414.572 293.201 414.716C293.321 414.86 293.381 415.028 293.381 415.22C293.381 415.292 293.369 415.4 293.345 415.544C293.345 415.688 293.345 416.012 293.345 416.516C293.345 416.852 293.405 417.356 293.525 418.028C293.645 418.7 293.789 419.384 293.957 420.08C294.125 420.776 294.293 421.424 294.461 422.024C294.653 422.6 294.809 422.96 294.929 423.104C294.977 423.008 295.001 422.9 295.001 422.78C295.025 422.636 295.049 422.528 295.073 422.456L295.469 419.504C295.565 418.76 295.757 417.98 296.045 417.164C296.357 416.324 296.681 415.676 297.017 415.22C297.137 415.028 297.269 414.932 297.413 414.932C297.557 414.932 297.689 415.04 297.809 415.256C298.217 415.928 298.517 416.6 298.709 417.272C298.925 417.92 299.105 418.568 299.249 419.216C299.417 419.84 299.597 420.476 299.789 421.124C300.005 421.748 300.329 422.384 300.761 423.032C300.953 422.72 301.193 422.216 301.481 421.52C301.769 420.8 302.057 420.08 302.345 419.36C302.657 418.64 302.945 418.016 303.209 417.488C303.473 416.936 303.677 416.66 303.821 416.66C303.893 416.66 304.013 416.672 304.181 416.696C304.349 416.72 304.469 416.732 304.541 416.732C304.757 416.732 304.937 416.984 305.081 417.488C305.225 417.968 305.345 418.544 305.441 419.216C305.561 419.864 305.669 420.524 305.765 421.196C305.885 421.844 306.017 422.336 306.161 422.672C306.257 422.912 306.401 423.14 306.593 423.356C306.785 423.572 306.977 423.776 307.169 423.968C307.409 424.184 307.649 424.4 307.889 424.616ZM320.792 424.22C320.816 424.268 320.828 424.34 320.828 424.436C320.828 424.58 320.72 424.796 320.504 425.084C320.432 425.18 320.276 425.336 320.036 425.552C319.796 425.768 319.472 425.984 319.064 426.2C318.656 426.416 318.152 426.608 317.552 426.776C316.976 426.944 316.292 427.028 315.5 427.028C314.948 427.028 314.408 426.908 313.88 426.668C313.352 426.404 312.884 426.032 312.476 425.552C312.068 425.048 311.732 424.436 311.468 423.716C311.204 422.972 311.072 422.108 311.072 421.124C311.072 420.188 311.192 419.312 311.432 418.496C311.672 417.68 311.972 416.96 312.332 416.336C312.716 415.712 313.136 415.22 313.592 414.86C314.048 414.5 314.492 414.32 314.924 414.32C315.308 414.32 315.692 414.404 316.076 414.572C316.484 414.716 316.844 414.908 317.156 415.148C317.492 415.388 317.756 415.664 317.948 415.976C318.14 416.264 318.236 416.564 318.236 416.876C318.236 417.236 318.068 417.608 317.732 417.992C317.42 418.376 317.036 418.736 316.58 419.072C316.124 419.384 315.668 419.648 315.212 419.864C314.756 420.056 314.396 420.152 314.132 420.152C313.988 420.152 313.856 420.092 313.736 419.972C313.64 419.828 313.592 419.66 313.592 419.468C313.592 419.132 313.736 418.868 314.024 418.676C314.336 418.484 314.672 418.316 315.032 418.172C315.392 418.004 315.716 417.812 316.004 417.596C316.316 417.38 316.472 417.08 316.472 416.696C316.472 416.648 316.412 416.528 316.292 416.336C316.172 416.144 315.848 416.048 315.32 416.048C315.08 416.048 314.804 416.192 314.492 416.48C314.18 416.744 313.88 417.116 313.592 417.596C313.304 418.052 313.064 418.604 312.872 419.252C312.68 419.876 312.584 420.56 312.584 421.304C312.584 421.928 312.692 422.492 312.908 422.996C313.148 423.5 313.448 423.932 313.808 424.292C314.168 424.628 314.588 424.892 315.068 425.084C315.548 425.276 316.04 425.372 316.544 425.372C316.904 425.372 317.288 425.3 317.696 425.156C318.128 424.988 318.524 424.82 318.884 424.652C319.268 424.46 319.592 424.292 319.856 424.148C320.144 423.98 320.324 423.896 320.396 423.896C320.468 423.896 320.54 423.932 320.612 424.004C320.708 424.076 320.768 424.148 320.792 424.22ZM339.319 424.616C339.319 424.808 339.259 424.976 339.139 425.12C339.019 425.264 338.875 425.384 338.707 425.48C338.539 425.552 338.359 425.612 338.167 425.66C337.999 425.708 337.855 425.732 337.735 425.732C337.231 425.732 336.799 425.468 336.439 424.94C336.079 424.388 335.779 423.788 335.539 423.14C335.299 422.468 335.119 421.844 334.999 421.268C334.903 420.692 334.855 420.38 334.855 420.332C334.711 420.596 334.555 421.04 334.387 421.664C334.243 422.288 334.063 422.924 333.847 423.572C333.631 424.196 333.355 424.76 333.019 425.264C332.707 425.744 332.299 425.984 331.795 425.984C331.555 425.984 331.327 425.84 331.111 425.552C330.895 425.264 330.691 424.892 330.499 424.436C330.307 423.98 330.115 423.464 329.923 422.888C329.755 422.312 329.575 421.748 329.383 421.196C329.215 420.644 329.047 420.128 328.879 419.648C328.711 419.144 328.543 418.748 328.375 418.46C328.231 418.82 328.099 419.312 327.979 419.936C327.883 420.56 327.799 421.22 327.727 421.916C327.655 422.588 327.595 423.26 327.547 423.932C327.499 424.604 327.475 425.192 327.475 425.696C327.475 426.032 327.379 426.272 327.187 426.416C327.019 426.56 326.839 426.632 326.647 426.632C326.383 426.632 326.119 426.464 325.855 426.128C325.591 425.768 325.327 425.312 325.063 424.76C324.799 424.208 324.547 423.584 324.307 422.888C324.091 422.192 323.887 421.496 323.695 420.8C323.527 420.104 323.395 419.444 323.299 418.82C323.203 418.172 323.155 417.632 323.155 417.2C323.155 416.888 323.167 416.6 323.191 416.336C323.215 416.12 323.227 415.916 323.227 415.724C323.251 415.532 323.263 415.424 323.263 415.4C323.263 415.328 323.239 415.28 323.191 415.256C323.167 415.232 323.155 415.172 323.155 415.076C323.155 415.004 323.239 414.896 323.407 414.752C323.599 414.584 323.791 414.5 323.983 414.5C324.319 414.5 324.535 414.572 324.631 414.716C324.751 414.86 324.811 415.028 324.811 415.22C324.811 415.292 324.799 415.4 324.775 415.544C324.775 415.688 324.775 416.012 324.775 416.516C324.775 416.852 324.835 417.356 324.955 418.028C325.075 418.7 325.219 419.384 325.387 420.08C325.555 420.776 325.723 421.424 325.891 422.024C326.083 422.6 326.239 422.96 326.359 423.104C326.407 423.008 326.431 422.9 326.431 422.78C326.455 422.636 326.479 422.528 326.503 422.456L326.899 419.504C326.995 418.76 327.187 417.98 327.475 417.164C327.787 416.324 328.111 415.676 328.447 415.22C328.567 415.028 328.699 414.932 328.843 414.932C328.987 414.932 329.119 415.04 329.239 415.256C329.647 415.928 329.947 416.6 330.139 417.272C330.355 417.92 330.535 418.568 330.679 419.216C330.847 419.84 331.027 420.476 331.219 421.124C331.435 421.748 331.759 422.384 332.191 423.032C332.383 422.72 332.623 422.216 332.911 421.52C333.199 420.8 333.487 420.08 333.775 419.36C334.087 418.64 334.375 418.016 334.639 417.488C334.903 416.936 335.107 416.66 335.251 416.66C335.323 416.66 335.443 416.672 335.611 416.696C335.779 416.72 335.899 416.732 335.971 416.732C336.187 416.732 336.367 416.984 336.511 417.488C336.655 417.968 336.775 418.544 336.871 419.216C336.991 419.864 337.099 420.524 337.195 421.196C337.315 421.844 337.447 422.336 337.591 422.672C337.687 422.912 337.831 423.14 338.023 423.356C338.215 423.572 338.407 423.776 338.599 423.968C338.839 424.184 339.079 424.4 339.319 424.616ZM348.657 420.224C348.657 420.752 348.585 421.256 348.441 421.736C348.297 422.216 348.105 422.636 347.865 422.996C347.625 423.356 347.337 423.644 347.001 423.86C346.689 424.052 346.341 424.148 345.957 424.148C345.285 424.148 344.757 423.956 344.373 423.572C343.989 423.188 343.689 422.744 343.473 422.24C343.281 421.736 343.149 421.232 343.077 420.728C343.029 420.2 343.005 419.804 343.005 419.54C343.005 419.108 343.065 418.628 343.185 418.1C343.329 417.548 343.509 417.044 343.725 416.588C343.965 416.132 344.229 415.748 344.517 415.436C344.805 415.124 345.105 414.968 345.417 414.968C345.489 414.968 345.597 414.992 345.741 415.04C345.909 415.088 346.077 415.16 346.245 415.256C346.413 415.352 346.557 415.472 346.677 415.616C346.821 415.76 346.917 415.928 346.965 416.12C347.229 416.144 347.493 416.24 347.757 416.408C348.021 416.576 348.165 416.708 348.189 416.804C348.381 417.428 348.501 418.052 348.549 418.676C348.621 419.3 348.657 419.816 348.657 420.224ZM347.037 419.576C347.037 419.216 347.001 418.844 346.929 418.46C346.857 418.052 346.713 417.644 346.497 417.236C346.449 417.26 346.389 417.272 346.317 417.272C346.221 417.272 346.137 417.26 346.065 417.236C346.017 417.212 345.969 417.2 345.921 417.2C345.633 417.2 345.405 417.284 345.237 417.452C345.069 417.596 344.937 417.8 344.841 418.064C344.769 418.304 344.721 418.568 344.697 418.856C344.673 419.144 344.661 419.42 344.661 419.684C344.661 419.948 344.673 420.248 344.697 420.584C344.721 420.896 344.769 421.196 344.841 421.484C344.937 421.772 345.057 422.024 345.201 422.24C345.345 422.432 345.537 422.528 345.777 422.528C346.017 422.528 346.221 422.408 346.389 422.168C346.557 421.904 346.689 421.604 346.785 421.268C346.881 420.932 346.941 420.608 346.965 420.296C347.013 419.96 347.037 419.72 347.037 419.576ZM360.799 417.02C360.799 417.188 360.727 417.332 360.583 417.452C360.439 417.548 360.271 417.632 360.079 417.704C359.887 417.776 359.695 417.836 359.503 417.884C359.311 417.908 359.155 417.92 359.035 417.92C358.675 417.92 358.435 417.896 358.315 417.848C358.195 417.8 358.099 417.776 358.027 417.776C357.427 417.776 356.947 417.824 356.587 417.92C356.227 418.016 355.939 418.172 355.723 418.388C355.531 418.604 355.399 418.88 355.327 419.216C355.279 419.528 355.255 419.912 355.255 420.368C355.255 421.136 355.279 421.748 355.327 422.204C355.399 422.66 355.459 423.032 355.507 423.32C355.579 423.608 355.639 423.836 355.687 424.004C355.759 424.148 355.795 424.292 355.795 424.436C355.795 424.628 355.687 424.832 355.471 425.048C355.279 425.264 355.099 425.372 354.931 425.372C354.643 425.372 354.379 425.12 354.139 424.616C353.923 424.088 353.731 423.476 353.563 422.78C353.419 422.06 353.299 421.352 353.203 420.656C353.107 419.96 353.059 419.432 353.059 419.072C353.059 418.664 353.095 418.28 353.167 417.92C353.239 417.536 353.335 417.212 353.455 416.948C353.575 416.66 353.707 416.432 353.851 416.264C353.995 416.096 354.139 416.012 354.283 416.012C354.403 416.012 354.499 416.06 354.571 416.156C354.643 416.228 354.703 416.324 354.751 416.444C354.799 416.54 354.847 416.636 354.895 416.732C354.967 416.804 355.051 416.84 355.147 416.84C355.363 416.84 355.711 416.732 356.191 416.516C356.671 416.3 357.259 416.192 357.955 416.192C358.603 416.192 359.083 416.216 359.395 416.264C359.731 416.288 360.055 416.36 360.367 416.48C360.439 416.504 360.523 416.564 360.619 416.66C360.739 416.732 360.799 416.852 360.799 417.02ZM365.818 411.44C365.818 411.488 365.734 411.584 365.566 411.728C365.398 411.872 365.194 412.028 364.954 412.196C364.738 412.34 364.51 412.472 364.27 412.592C364.03 412.712 363.838 412.772 363.694 412.772C363.598 412.772 363.466 412.772 363.298 412.772C363.154 412.748 362.998 412.7 362.83 412.628C362.686 412.556 362.554 412.46 362.434 412.34C362.314 412.196 362.254 412.016 362.254 411.8C362.254 411.464 362.374 411.152 362.614 410.864C362.854 410.552 363.166 410.396 363.55 410.396C363.622 410.396 363.778 410.432 364.018 410.504C364.282 410.552 364.546 410.624 364.81 410.72C365.074 410.816 365.302 410.924 365.494 411.044C365.71 411.164 365.818 411.296 365.818 411.44ZM367.006 424.904C367.006 425.072 366.874 425.216 366.61 425.336C366.37 425.456 366.19 425.516 366.07 425.516C365.83 425.516 365.614 425.36 365.422 425.048C365.23 424.736 365.062 424.376 364.918 423.968C364.774 423.56 364.654 423.176 364.558 422.816C364.462 422.432 364.39 422.168 364.342 422.024C364.27 421.784 364.174 421.496 364.054 421.16C363.934 420.824 363.814 420.5 363.694 420.188C363.598 419.876 363.514 419.6 363.442 419.36C363.37 419.12 363.334 418.988 363.334 418.964C363.334 418.628 363.394 418.316 363.514 418.028C363.658 417.74 363.826 417.596 364.018 417.596C364.234 417.596 364.462 417.764 364.702 418.1C364.942 418.436 365.17 418.868 365.386 419.396C365.626 419.9 365.842 420.464 366.034 421.088C366.226 421.688 366.394 422.264 366.538 422.816C366.682 423.344 366.79 423.812 366.862 424.22C366.958 424.604 367.006 424.832 367.006 424.904ZM379.292 424.22C379.316 424.268 379.328 424.34 379.328 424.436C379.328 424.58 379.22 424.796 379.004 425.084C378.932 425.18 378.776 425.336 378.536 425.552C378.296 425.768 377.972 425.984 377.564 426.2C377.156 426.416 376.652 426.608 376.052 426.776C375.476 426.944 374.792 427.028 374 427.028C373.448 427.028 372.908 426.908 372.38 426.668C371.852 426.404 371.384 426.032 370.976 425.552C370.568 425.048 370.232 424.436 369.968 423.716C369.704 422.972 369.572 422.108 369.572 421.124C369.572 420.188 369.692 419.312 369.932 418.496C370.172 417.68 370.472 416.96 370.832 416.336C371.216 415.712 371.636 415.22 372.092 414.86C372.548 414.5 372.992 414.32 373.424 414.32C373.808 414.32 374.192 414.404 374.576 414.572C374.984 414.716 375.344 414.908 375.656 415.148C375.992 415.388 376.256 415.664 376.448 415.976C376.64 416.264 376.736 416.564 376.736 416.876C376.736 417.236 376.568 417.608 376.232 417.992C375.92 418.376 375.536 418.736 375.08 419.072C374.624 419.384 374.168 419.648 373.712 419.864C373.256 420.056 372.896 420.152 372.632 420.152C372.488 420.152 372.356 420.092 372.236 419.972C372.14 419.828 372.092 419.66 372.092 419.468C372.092 419.132 372.236 418.868 372.524 418.676C372.836 418.484 373.172 418.316 373.532 418.172C373.892 418.004 374.216 417.812 374.504 417.596C374.816 417.38 374.972 417.08 374.972 416.696C374.972 416.648 374.912 416.528 374.792 416.336C374.672 416.144 374.348 416.048 373.82 416.048C373.58 416.048 373.304 416.192 372.992 416.48C372.68 416.744 372.38 417.116 372.092 417.596C371.804 418.052 371.564 418.604 371.372 419.252C371.18 419.876 371.084 420.56 371.084 421.304C371.084 421.928 371.192 422.492 371.408 422.996C371.648 423.5 371.948 423.932 372.308 424.292C372.668 424.628 373.088 424.892 373.568 425.084C374.048 425.276 374.54 425.372 375.044 425.372C375.404 425.372 375.788 425.3 376.196 425.156C376.628 424.988 377.024 424.82 377.384 424.652C377.768 424.46 378.092 424.292 378.356 424.148C378.644 423.98 378.824 423.896 378.896 423.896C378.968 423.896 379.04 423.932 379.112 424.004C379.208 424.076 379.268 424.148 379.292 424.22ZM389.935 423.248C389.935 423.656 389.791 424.016 389.503 424.328C389.239 424.616 388.891 424.868 388.459 425.084C388.051 425.276 387.595 425.432 387.091 425.552C386.587 425.672 386.107 425.768 385.651 425.84C385.195 425.888 384.787 425.924 384.427 425.948C384.091 425.948 383.875 425.948 383.779 425.948C383.251 425.948 382.843 425.864 382.555 425.696C382.267 425.528 382.123 425.228 382.123 424.796C382.123 424.652 382.135 424.532 382.159 424.436C382.183 424.316 382.279 424.256 382.447 424.256C382.519 424.256 382.639 424.28 382.807 424.328C382.975 424.352 383.107 424.364 383.203 424.364C383.299 424.364 383.599 424.352 384.103 424.328C384.631 424.28 385.183 424.208 385.759 424.112C386.359 424.016 386.887 423.884 387.343 423.716C387.823 423.524 388.063 423.284 388.063 422.996C388.063 422.948 387.811 422.804 387.307 422.564C386.827 422.3 386.095 421.868 385.111 421.268C384.343 420.788 383.803 420.308 383.491 419.828C383.179 419.324 383.023 418.652 383.023 417.812C383.023 417.284 383.131 416.852 383.347 416.516C383.587 416.18 383.899 415.916 384.283 415.724C384.691 415.532 385.147 415.4 385.651 415.328C386.179 415.232 386.731 415.184 387.307 415.184C387.355 415.184 387.499 415.208 387.739 415.256C388.003 415.304 388.279 415.388 388.567 415.508C388.855 415.604 389.107 415.736 389.323 415.904C389.563 416.048 389.683 416.216 389.683 416.408C389.683 416.456 389.635 416.528 389.539 416.624C389.467 416.72 389.335 416.9 389.143 417.164C389.071 417.14 388.939 417.104 388.747 417.056C388.579 417.008 388.375 416.96 388.135 416.912C387.919 416.84 387.691 416.792 387.451 416.768C387.211 416.72 387.019 416.696 386.875 416.696C386.251 416.696 385.747 416.816 385.363 417.056C384.979 417.272 384.787 417.704 384.787 418.352C384.787 418.664 384.907 418.952 385.147 419.216C385.411 419.48 385.735 419.732 386.119 419.972C386.503 420.188 386.911 420.416 387.343 420.656C387.799 420.872 388.219 421.112 388.603 421.376C388.987 421.64 389.299 421.928 389.539 422.24C389.803 422.528 389.935 422.864 389.935 423.248ZM396.974 410.612C396.974 410.828 396.866 411.296 396.65 412.016C396.434 412.736 396.194 413.54 395.93 414.428C395.69 415.292 395.462 416.144 395.246 416.984C395.054 417.824 394.958 418.484 394.958 418.964C394.958 419.468 394.982 419.888 395.03 420.224C395.078 420.536 395.126 420.8 395.174 421.016C395.246 421.232 395.306 421.424 395.354 421.592C395.402 421.736 395.426 421.916 395.426 422.132C395.426 422.612 395.21 422.852 394.778 422.852C394.706 422.852 394.634 422.804 394.562 422.708C394.034 421.94 393.71 421.184 393.59 420.44C393.494 419.696 393.446 419.12 393.446 418.712C393.446 418.208 393.518 417.56 393.662 416.768C393.806 415.952 393.986 415.1 394.202 414.212C394.418 413.3 394.658 412.4 394.922 411.512C395.21 410.6 395.486 409.808 395.75 409.136C395.798 409.088 395.858 409.04 395.93 408.992C396.002 408.944 396.098 408.92 396.218 408.92C396.386 408.92 396.518 408.992 396.614 409.136C396.71 409.256 396.782 409.412 396.83 409.604C396.878 409.772 396.914 409.952 396.938 410.144C396.962 410.336 396.974 410.492 396.974 410.612ZM398.162 426.776C398.162 427.04 398.078 427.316 397.91 427.604C397.766 427.868 397.574 428 397.334 428C397.022 428 396.722 427.844 396.434 427.532C396.17 427.22 396.038 426.86 396.038 426.452C396.038 426.308 396.062 426.128 396.11 425.912C396.182 425.672 396.338 425.552 396.578 425.552C396.674 425.552 396.806 425.564 396.974 425.588C397.142 425.612 397.31 425.672 397.478 425.768C397.67 425.84 397.826 425.96 397.946 426.128C398.09 426.296 398.162 426.512 398.162 426.776Z" fill="black"/>
</g>
</svg>
