<svg width="1152" height="701" viewBox="0 0 1152 701" fill="none" xmlns="http://www.w3.org/2000/svg">
<rect width="1152" height="700" fill="black"/>
<path fill-rule="evenodd" clip-rule="evenodd" d="M0 360.267L10 406.267C20 452.267 40 544.267 61 590.267C81 636.267 101 636.267 121 636.267C141 636.267 162 636.267 182 602.267C202 567.267 222 498.267 243 475.267C263 452.267 283 475.267 303 475.267C323 475.267 344 452.267 364 440.267C384 429.267 404 429.267 424 463.267C445 498.267 465 567.267 485 585.267C505 602.267 525 567.267 546 550.267C566 533.267 586 533.267 606 533.267C627 533.267 647 533.267 667 521.267C687 510.267 707 486.267 728 469.267C748 452.267 768 440.267 788 452.267C808 463.267 829 498.267 849 481.267C869 463.267 889 394.267 909 365.267C930 337.267 950 348.267 970 394.267C990 440.267 1011 521.267 1031 533.267C1051 544.267 1071 486.267 1091 469.267C1112 452.267 1132 475.267 1142 486.267L1152 498.267V671.267H1142C1132 671.267 1112 671.267 1091 671.267C1071 671.267 1051 671.267 1031 671.267C1011 671.267 990 671.267 970 671.267C950 671.267 930 671.267 909 671.267C889 671.267 869 671.267 849 671.267C829 671.267 808 671.267 788 671.267C768 671.267 748 671.267 728 671.267C707 671.267 687 671.267 667 671.267C647 671.267 627 671.267 606 671.267C586 671.267 566 671.267 546 671.267C525 671.267 505 671.267 485 671.267C465 671.267 445 671.267 424 671.267C404 671.267 384 671.267 364 671.267C344 671.267 323 671.267 303 671.267C283 671.267 263 671.267 243 671.267C222 671.267 202 671.267 182 671.267C162 671.267 141 671.267 121 671.267C101 671.267 81 671.267 61 671.267C40 671.267 20 671.267 10 671.267H0V360.267Z" fill="#D9FBFD"/>
<path fill-rule="evenodd" clip-rule="evenodd" d="M0 389.267L10 435.267C20 481.267 40 573.267 61 619.267C81 665.267 101 665.267 121 665.267C141 665.267 162 665.267 182 631.267C202 596.267 222 527.267 243 504.267C263 481.267 283 504.267 303 504.267C323 504.267 344 481.267 364 469.267C384 458.267 404 458.267 424 492.267C445 527.267 465 596.267 485 614.267C505 631.267 525 596.267 546 579.267C566 562.267 586 562.267 606 562.267C627 562.267 647 562.267 667 550.267C687 539.267 707 515.267 728 498.267C748 481.267 768 469.267 788 481.267C808 492.267 829 527.267 849 510.267C869 492.267 889 423.267 909 394.267C930 366.267 950 377.267 970 423.267C990 469.267 1011 550.267 1031 562.267C1051 573.267 1071 515.267 1091 498.267C1112 481.267 1132 504.267 1142 515.267L1152 527.267V700.267H1142C1132 700.267 1112 700.267 1091 700.267C1071 700.267 1051 700.267 1031 700.267C1011 700.267 990 700.267 970 700.267C950 700.267 930 700.267 909 700.267C889 700.267 869 700.267 849 700.267C829 700.267 808 700.267 788 700.267C768 700.267 748 700.267 728 700.267C707 700.267 687 700.267 667 700.267C647 700.267 627 700.267 606 700.267C586 700.267 566 700.267 546 700.267C525 700.267 505 700.267 485 700.267C465 700.267 445 700.267 424 700.267C404 700.267 384 700.267 364 700.267C344 700.267 323 700.267 303 700.267C283 700.267 263 700.267 243 700.267C222 700.267 202 700.267 182 700.267C162 700.267 141 700.267 121 700.267C101 700.267 81 700.267 61 700.267C40 700.267 20 700.267 10 700.267H0V389.267Z" fill="#3D3A3A"/>
</svg>
