<svg width="269" height="64" viewBox="0 0 269 64" fill="none" xmlns="http://www.w3.org/2000/svg">
<g opacity="0.2" filter="url(#filter0_d)">
<rect x="144" width="121" height="56" fill="black"/>
<rect x="144.5" y="0.5" width="120" height="55" stroke="black"/>
</g>
<g filter="url(#filter1_d)">
<path d="M7.03125 40.7344V13.9453H4.14844V9.67969H12.8906C15.9375 9.67969 18.3203 10.6484 20.0391 12.5859C21.7734 14.5234 22.6406 17.2031 22.6406 20.625C22.6406 24 21.8281 26.6406 20.2031 28.5469C18.5781 30.4531 15.8516 31.4062 12.0234 31.4062V40.7344H14.9531V45H4.14844V40.7344H7.03125ZM12.0234 13.9453V27.1406C13.1484 27.1406 14.0703 27.0234 14.7891 26.7891C15.5234 26.5391 16.1406 25.9375 16.6406 24.9844C17.1406 24.0312 17.3906 22.5625 17.3906 20.5781C17.3906 18.0156 16.9375 16.2734 16.0312 15.3516C15.1406 14.4141 13.8047 13.9453 12.0234 13.9453ZM31.8047 28.3359V40.7344H33.4688V45H24.1172V40.7344H26.8125V13.9453H24.1172V9.67969H33.4688V13.9453H31.8047V24.0703H36.75V13.9453H35.0625V9.67969H44.4141V13.9453H41.7422V40.7344H44.4141V45H35.0625V40.7344H36.75V28.3359H31.8047ZM63.75 27.5391C63.75 39.5703 61.0312 45.5859 55.5938 45.5859C52.7969 45.5859 50.7266 44.0938 49.3828 41.1094C48.0547 38.125 47.3906 33.6016 47.3906 27.5391C47.3906 23.4766 47.7109 20.0781 48.3516 17.3438C48.9922 14.5938 49.9297 12.5313 51.1641 11.1562C52.3984 9.78125 53.875 9.09375 55.5938 9.09375C58.1875 9.09375 60.1953 10.6406 61.6172 13.7344C63.0391 16.8125 63.75 21.4141 63.75 27.5391ZM52.8516 27.7266C52.8516 32.8359 53.0391 36.3125 53.4141 38.1562C53.8047 40 54.5312 40.9219 55.5938 40.9219C56.625 40.9219 57.3281 40 57.7031 38.1562C58.0938 36.3125 58.2891 32.8516 58.2891 27.7734C58.2891 22.2266 58.1094 18.5078 57.75 16.6172C57.3906 14.7109 56.6719 13.7578 55.5938 13.7578C54.4531 13.7578 53.7109 14.8047 53.3672 16.8984C53.0234 18.9766 52.8516 22.5859 52.8516 27.7266ZM83.8359 9.67969V22.5938H80.1094V13.4062H77.1328V40.7344H79.9219V45H69.3516V40.7344H72.1406V13.4062H69.1641V22.5938H65.4141V9.67969H83.8359ZM101.812 27.5391C101.812 39.5703 99.0938 45.5859 93.6562 45.5859C90.8594 45.5859 88.7891 44.0938 87.4453 41.1094C86.1172 38.125 85.4531 33.6016 85.4531 27.5391C85.4531 23.4766 85.7734 20.0781 86.4141 17.3438C87.0547 14.5938 87.9922 12.5313 89.2266 11.1562C90.4609 9.78125 91.9375 9.09375 93.6562 9.09375C96.25 9.09375 98.2578 10.6406 99.6797 13.7344C101.102 16.8125 101.812 21.4141 101.812 27.5391ZM90.9141 27.7266C90.9141 32.8359 91.1016 36.3125 91.4766 38.1562C91.8672 40 92.5938 40.9219 93.6562 40.9219C94.6875 40.9219 95.3906 40 95.7656 38.1562C96.1562 36.3125 96.3516 32.8516 96.3516 27.7734C96.3516 22.2266 96.1719 18.5078 95.8125 16.6172C95.4531 14.7109 94.7344 13.7578 93.6562 13.7578C92.5156 13.7578 91.7734 14.8047 91.4297 16.8984C91.0859 18.9766 90.9141 22.5859 90.9141 27.7266ZM104.93 34.7812V30.6094H114.82V34.7812H104.93ZM129.258 32.4141L133.641 33.6328C133.609 37.3359 132.938 40.2578 131.625 42.3984C130.312 44.5234 128.516 45.5859 126.234 45.5859C123.422 45.5859 121.336 44.1172 119.977 41.1797C118.617 38.2266 117.938 33.7422 117.938 27.7266C117.938 15.3047 120.336 9.09375 125.133 9.09375C126.82 9.09375 128.102 9.85938 128.977 11.3906H129.07V9.67969H133.336V21.1406H129.07C129.07 18.75 128.797 16.9219 128.25 15.6562C127.703 14.3906 126.922 13.7578 125.906 13.7578C125.156 13.7578 124.609 14.0625 124.266 14.6719C123.938 15.2812 123.711 16.4922 123.586 18.3047C123.461 20.1016 123.398 23.0312 123.398 27.0938C123.398 32.6875 123.586 36.3906 123.961 38.2031C124.352 40.0156 125.141 40.9219 126.328 40.9219C127.344 40.9219 128.086 40.2656 128.555 38.9531C129.023 37.6406 129.258 35.4609 129.258 32.4141ZM136.758 45V40.7344H139.312V13.9453H136.758V9.67969H146.977V13.9453H144.305V40.7344H148.617V29.6484H152.883V45H136.758ZM171.797 27.5391C171.797 39.5703 169.078 45.5859 163.641 45.5859C160.844 45.5859 158.773 44.0938 157.43 41.1094C156.102 38.125 155.438 33.6016 155.438 27.5391C155.438 23.4766 155.758 20.0781 156.398 17.3438C157.039 14.5938 157.977 12.5313 159.211 11.1562C160.445 9.78125 161.922 9.09375 163.641 9.09375C166.234 9.09375 168.242 10.6406 169.664 13.7344C171.086 16.8125 171.797 21.4141 171.797 27.5391ZM160.898 27.7266C160.898 32.8359 161.086 36.3125 161.461 38.1562C161.852 40 162.578 40.9219 163.641 40.9219C164.672 40.9219 165.375 40 165.75 38.1562C166.141 36.3125 166.336 32.8516 166.336 27.7734C166.336 22.2266 166.156 18.5078 165.797 16.6172C165.438 14.7109 164.719 13.7578 163.641 13.7578C162.5 13.7578 161.758 14.8047 161.414 16.8984C161.07 18.9766 160.898 22.5859 160.898 27.7266ZM174.445 13.9453V9.67969H183.984V13.9453H182.109V36.6094C182.109 38.3125 182.328 39.5156 182.766 40.2188C183.203 40.9062 183.945 41.25 184.992 41.25C186.07 41.25 186.82 40.8984 187.242 40.1953C187.664 39.4922 187.875 38.2969 187.875 36.6094V13.9453H186.047V9.67969H194.789V13.9453H192.164V36.3984C192.164 39.6016 191.445 41.9375 190.008 43.4062C188.57 44.8594 186.789 45.5859 184.664 45.5859C182.336 45.5859 180.5 44.8828 179.156 43.4766C177.812 42.0703 177.141 40.2578 177.141 38.0391V13.9453H174.445ZM197.344 45V40.7344H199.922V13.9453H197.344V9.67969H203.719C207.781 9.67969 210.719 11.125 212.531 14.0156C214.344 16.9062 215.25 21.3906 215.25 27.4688C215.25 33.4219 214.32 37.8359 212.461 40.7109C210.617 43.5703 207.75 45 203.859 45H197.344ZM204.914 13.9453V40.7344C206.727 40.7031 207.984 39.7578 208.688 37.8984C209.406 36.0391 209.766 32.7578 209.766 28.0547C209.766 24.3828 209.617 21.5391 209.32 19.5234C209.023 17.5078 208.531 16.0781 207.844 15.2344C207.156 14.375 206.18 13.9453 204.914 13.9453Z" fill="#BF8B6F"/>
</g>
<defs>
<filter id="filter0_d" x="140" y="0" width="129" height="64" filterUnits="userSpaceOnUse" color-interpolation-filters="sRGB">
<feFlood flood-opacity="0" result="BackgroundImageFix"/>
<feColorMatrix in="SourceAlpha" type="matrix" values="0 0 0 0 0 0 0 0 0 0 0 0 0 0 0 0 0 0 127 0"/>
<feOffset dy="4"/>
<feGaussianBlur stdDeviation="2"/>
<feColorMatrix type="matrix" values="0 0 0 0 0 0 0 0 0 0 0 0 0 0 0 0 0 0 0.49 0"/>
<feBlend mode="normal" in2="BackgroundImageFix" result="effect1_dropShadow"/>
<feBlend mode="normal" in="SourceGraphic" in2="effect1_dropShadow" result="shape"/>
</filter>
<filter id="filter1_d" x="0.148438" y="9.09375" width="219.102" height="44.4922" filterUnits="userSpaceOnUse" color-interpolation-filters="sRGB">
<feFlood flood-opacity="0" result="BackgroundImageFix"/>
<feColorMatrix in="SourceAlpha" type="matrix" values="0 0 0 0 0 0 0 0 0 0 0 0 0 0 0 0 0 0 127 0"/>
<feOffset dy="4"/>
<feGaussianBlur stdDeviation="2"/>
<feColorMatrix type="matrix" values="0 0 0 0 0 0 0 0 0 0 0 0 0 0 0 0 0 0 0.49 0"/>
<feBlend mode="normal" in2="BackgroundImageFix" result="effect1_dropShadow"/>
<feBlend mode="normal" in="SourceGraphic" in2="effect1_dropShadow" result="shape"/>
</filter>
</defs>
</svg>
